<?xml version="1.0" encoding="UTF-8"?>
<svg width="4370px" height="1200px" viewBox="0 0 4370 1200" version="1.1" xmlns="http://www.w3.org/2000/svg" xmlns:xlink="http://www.w3.org/1999/xlink">
    <!-- Generator: Sketch 51.2 (57519) - http://www.bohemiancoding.com/sketch -->
    <title>Wordmark-Light Text-Background</title>
    <desc>Created with Sketch.</desc>
    <defs>
        <rect id="path-1" x="0" y="0" width="800" height="800" rx="100"></rect>
    </defs>
    <g id="Wordmark-Light-Text-Background" stroke="none" stroke-width="1" fill="none" fill-rule="evenodd">
        <g id="Logo-Text---Light" transform="translate(1410.000000, 200.000000)" fill="#FFFFFF">
            <path d="M66.6621094,192.863281 L66.6621094,224.46875 C66.6621094,274.419922 89.5488281,298.214844 124.787109,298.214844 C159.298828,298.214844 177.099609,275.873047 177.099609,249.716797 L219.603516,249.716797 L219.603516,253.53125 C219.603516,295.126953 186.908203,336.904297 123.697266,336.904297 C60.6679688,336.904297 22.1601562,296.398438 22.1601562,224.46875 L22.1601562,192.5 C22.1601562,121.478516 61.03125,79.15625 123.878906,79.15625 C185.091797,79.15625 219.603516,120.207031 219.603516,165.617188 L219.603516,169.431641 L177.099609,169.431641 C177.099609,143.457031 158.753906,118.027344 124.242188,118.027344 C89.7304688,118.027344 66.6621094,143.275391 66.6621094,192.863281 Z M343.516328,138.371094 C389.471406,138.371094 424.346406,168.523438 424.346406,221.5625 L424.346406,251.714844 C424.346406,304.753906 389.471406,335.087891 343.516328,335.087891 C296.653047,335.087891 262.504609,305.298828 262.504609,251.714844 L262.504609,221.5625 C262.504609,170.521484 297.379609,138.371094 343.516328,138.371094 Z M343.697969,163.619141 C311.910859,163.619141 291.022187,188.322266 291.022187,224.832031 L291.022187,248.808594 C291.022187,286.226562 310.639375,309.839844 343.697969,309.839844 C376.574922,309.839844 395.828828,286.226562 395.828828,248.808594 L395.828828,224.832031 C395.828828,188.322266 375.666719,163.619141 343.697969,163.619141 Z M483.172458,332 L483.172458,141.458984 L511.690036,141.458984 L511.690036,170.703125 L513.143161,170.703125 C518.047458,158.169922 531.852146,138.552734 566.545505,138.552734 C569.996677,138.552734 573.81113,138.916016 577.625583,139.279297 L577.625583,165.798828 C574.537692,165.253906 568.543552,165.072266 563.094333,165.072266 C528.945896,165.072266 511.690036,185.779297 511.690036,211.572266 L511.690036,332 L483.172458,332 Z M621.012182,332 L621.012182,141.458984 L649.52976,141.458984 L649.52976,176.333984 L650.982885,176.333984 C655.887182,161.257812 668.602025,138.371094 709.107885,138.371094 C747.615697,138.371094 774.135229,158.896484 774.135229,201.21875 L774.135229,332 L745.61765,332 L745.61765,210.664062 C745.61765,180.148438 729.996557,163.619141 702.387182,163.619141 C666.422338,163.619141 649.52976,191.410156 649.52976,225.740234 L649.52976,332 L621.012182,332 Z M908.705421,335.087891 C858.027687,335.087891 828.783546,302.210938 828.783546,252.259766 L828.783546,221.380859 C828.783546,170.884766 861.115577,138.371094 906.344093,138.371094 C951.572608,138.371094 983.90464,170.884766 983.90464,221.380859 L983.90464,244.630859 L857.482765,244.630859 L857.482765,254.439453 C857.482765,285.318359 874.920265,309.839844 908.52378,309.839844 C931.77378,309.839844 947.213233,298.759766 950.846046,286.953125 L981.18003,286.953125 C978.09214,306.388672 955.205421,335.087891 908.705421,335.087891 Z M857.482765,222.470703 L955.205421,222.470703 L955.205421,219.019531 C955.205421,185.597656 935.769874,163.619141 906.344093,163.619141 C876.918312,163.619141 857.482765,185.597656 857.482765,219.019531 L857.482765,222.470703 Z M1039.46116,332 L1039.46116,63.7167969 L1067.97874,63.7167969 L1067.97874,332 L1039.46116,332 Z M1135.16026,332 L1135.16026,63.7167969 L1163.67784,63.7167969 L1163.67784,332 L1135.16026,332 Z M1311.119,84.0605469 L1398.3065,84.0605469 C1478.41002,84.0605469 1508.744,134.738281 1508.744,207.576172 C1508.744,279.6875 1478.95494,332 1398.3065,332 L1311.119,332 L1311.119,84.0605469 Z M1355.07603,121.660156 L1355.07603,294.400391 L1393.22057,294.400391 C1439.17564,294.400391 1463.33385,269.515625 1463.33385,208.302734 C1463.33385,157.625 1445.89635,121.660156 1393.22057,121.660156 L1355.07603,121.660156 Z M1629.87279,335.087891 C1579.19505,335.087891 1549.95091,302.210938 1549.95091,252.259766 L1549.95091,221.380859 C1549.95091,170.884766 1582.28295,138.371094 1627.51146,138.371094 C1672.73998,138.371094 1705.07201,170.884766 1705.07201,221.380859 L1705.07201,244.630859 L1578.65013,244.630859 L1578.65013,254.439453 C1578.65013,285.318359 1596.08763,309.839844 1629.69115,309.839844 C1652.94115,309.839844 1668.3806,298.759766 1672.01341,286.953125 L1702.3474,286.953125 C1699.25951,306.388672 1676.37279,335.087891 1629.87279,335.087891 Z M1578.65013,222.470703 L1676.37279,222.470703 L1676.37279,219.019531 C1676.37279,185.597656 1656.93724,163.619141 1627.51146,163.619141 C1598.08568,163.619141 1578.65013,185.597656 1578.65013,219.019531 L1578.65013,222.470703 Z M1749.91173,195.587891 C1749.91173,155.808594 1783.33361,138.371094 1819.48009,138.371094 C1859.98595,138.371094 1886.32384,159.986328 1886.32384,191.046875 L1859.44103,191.046875 C1858.35118,177.060547 1845.27306,162.166016 1818.20861,162.166016 C1794.95861,162.166016 1777.88439,172.882812 1777.88439,192.5 C1777.88439,216.113281 1802.76915,219.201172 1824.56603,223.197266 C1860.34923,229.554688 1891.0465,238.636719 1891.0465,276.236328 C1891.0465,314.017578 1860.53087,335.087891 1816.57384,335.087891 C1775.88634,335.087891 1746.6422,316.923828 1746.6422,282.775391 L1774.61486,282.775391 C1777.33947,300.576172 1789.50939,311.474609 1817.84533,311.474609 C1849.81408,311.474609 1862.8922,297.125 1862.8922,279.6875 C1862.8922,257.527344 1842.00353,253.167969 1814.93908,247.900391 C1779.15587,240.453125 1749.91173,233.1875 1749.91173,195.587891 Z M1949.69091,332 L1949.69091,141.458984 L1978.20849,141.458984 L1978.20849,332 L1949.69091,332 Z M1942.42528,82.0625 C1942.42528,69.5292969 1951.8706,60.4472656 1963.67724,60.4472656 C1976.21044,60.4472656 1985.47411,69.5292969 1985.47411,82.0625 C1985.47411,94.2324219 1976.21044,103.314453 1963.67724,103.314453 C1951.8706,103.314453 1942.42528,94.2324219 1942.42528,82.0625 Z M2114.59508,378.318359 C2149.83337,378.318359 2167.27087,359.246094 2167.27087,328.003906 L2167.27087,298.759766 L2165.6361,298.759766 C2158.00719,315.107422 2138.39001,328.548828 2112.05212,328.548828 C2069.72985,328.548828 2035.94469,298.759766 2035.94469,249.716797 L2035.94469,217.566406 C2035.94469,168.523438 2069.54821,138.371094 2111.87048,138.371094 C2140.56969,138.371094 2161.09508,154.900391 2167.45251,169.976562 L2168.72399,169.976562 L2168.72399,141.458984 L2195.78844,141.458984 L2195.78844,327.458984 C2195.78844,379.589844 2163.45641,403.566406 2113.3236,403.566406 C2065.37048,403.566406 2043.02868,380.134766 2040.12243,352.34375 L2069.91149,352.34375 C2072.45446,366.330078 2088.25719,378.318359 2114.59508,378.318359 Z M2117.50133,163.619141 C2084.62438,163.619141 2064.46227,188.322266 2064.46227,224.287109 L2064.46227,242.996094 C2064.46227,278.779297 2086.62243,303.300781 2117.86462,303.300781 C2150.01501,303.300781 2167.27087,276.78125 2167.27087,249.353516 L2167.27087,218.65625 C2167.27087,190.501953 2148.92516,163.619141 2117.50133,163.619141 Z M2260.79028,332 L2260.79028,141.458984 L2289.30786,141.458984 L2289.30786,176.333984 L2290.76098,176.333984 C2295.66528,161.257812 2308.38012,138.371094 2348.88598,138.371094 C2387.39379,138.371094 2413.91332,158.896484 2413.91332,201.21875 L2413.91332,332 L2385.39575,332 L2385.39575,210.664062 C2385.39575,180.148438 2369.77465,163.619141 2342.16528,163.619141 C2306.20043,163.619141 2289.30786,191.410156 2289.30786,225.740234 L2289.30786,332 L2260.79028,332 Z M204.527344,732 L181.640625,707.296875 C156.029297,730.001953 125.695312,736.722656 102.808594,736.722656 C57.5800781,736.722656 20.34375,710.566406 20.34375,666.609375 C20.34375,633.914062 40.8691406,613.388672 69.2050781,597.949219 C72.1113281,596.496094 75.0175781,594.861328 78.1054688,593.408203 C62.484375,576.878906 47.5898438,559.441406 47.5898438,536.373047 C47.5898438,506.583984 72.4746094,481.880859 109.166016,481.880859 C144.585938,481.880859 171.105469,504.949219 171.105469,537.099609 C171.105469,567.433594 147.310547,584.326172 118.066406,599.765625 L180.005859,667.335938 C188.361328,651.533203 191.8125,628.101562 191.8125,597.222656 L191.8125,590.501953 L219.058594,590.501953 L219.058594,597.041016 C219.058594,635.185547 213.064453,664.974609 199.078125,686.771484 L241.582031,732 L204.527344,732 Z M85.9160156,615.205078 C63.7558594,627.375 49.2246094,641.361328 49.2246094,664.792969 C49.2246094,697.125 76.6523438,712.201172 105.169922,712.201172 C124.060547,712.201172 148.582031,705.662109 164.566406,688.769531 L94.0898438,611.027344 C91.1835938,612.480469 88.4589844,613.751953 85.9160156,615.205078 Z M102.082031,583.054688 C125.876953,570.884766 143.314453,559.441406 143.314453,537.644531 C143.314453,518.027344 128.964844,504.949219 109.347656,504.949219 C89.1855469,504.949219 75.5625,518.935547 75.5625,538.007812 C75.5625,551.267578 81.9199219,562.710938 102.082031,583.054688 Z M448.782963,732 L404.825932,732 L404.825932,522.386719 L333.077885,522.386719 L333.077885,484.060547 L520.53101,484.060547 L520.53101,522.386719 L448.782963,522.386719 L448.782963,732 Z M630.579718,735.087891 C579.901983,735.087891 550.657843,702.210938 550.657843,652.259766 L550.657843,621.380859 C550.657843,570.884766 582.989874,538.371094 628.21839,538.371094 C673.446905,538.371094 705.778936,570.884766 705.778936,621.380859 L705.778936,644.630859 L579.357061,644.630859 L579.357061,654.439453 C579.357061,685.318359 596.794561,709.839844 630.398077,709.839844 C653.648077,709.839844 669.08753,698.759766 672.720343,686.953125 L703.054327,686.953125 C699.966436,706.388672 677.079718,735.087891 630.579718,735.087891 Z M579.357061,622.470703 L677.079718,622.470703 L677.079718,619.019531 C677.079718,585.597656 657.644171,563.619141 628.21839,563.619141 C598.792608,563.619141 579.357061,585.597656 579.357061,619.019531 L579.357061,622.470703 Z M750.800301,653.167969 L750.800301,619.746094 C750.800301,570.521484 780.771004,538.371094 828.90577,538.371094 C875.950691,538.371094 899.563973,567.615234 900.472176,594.134766 L871.954598,594.134766 C869.77491,583.417969 860.87452,564.345703 829.269051,564.345703 C796.210457,564.345703 779.317879,586.505859 779.317879,621.017578 L779.317879,653.53125 C779.317879,687.316406 798.208504,709.113281 829.269051,709.113281 C858.876473,709.113281 869.77491,695.853516 873.407723,681.685547 L901.925301,681.685547 C900.653816,707.296875 878.675301,735.087891 828.90577,735.087891 C780.771004,735.087891 750.800301,703.300781 750.800301,653.167969 Z M954.393931,732 L954.393931,463.716797 L982.911509,463.716797 L982.911509,576.333984 L984.364634,576.333984 C988.179087,563.255859 1003.61854,538.371094 1043.94276,538.371094 C1080.81581,538.371094 1108.24354,559.259766 1108.24354,601.582031 L1108.24354,732 L1079.72596,732 L1079.72596,611.027344 C1079.72596,580.511719 1062.83338,563.619141 1035.40565,563.619141 C1000.53065,563.619141 982.911509,591.228516 982.911509,625.740234 L982.911509,732 L954.393931,732 Z M1297.64369,732 L1253.68666,732 L1253.68666,484.060547 L1297.64369,484.060547 L1297.64369,732 Z M1361.37404,732 L1361.37404,541.458984 L1389.89162,541.458984 L1389.89162,576.333984 L1391.34474,576.333984 C1396.24904,561.257812 1408.96388,538.371094 1449.46974,538.371094 C1487.97755,538.371094 1514.49709,558.896484 1514.49709,601.21875 L1514.49709,732 L1485.97951,732 L1485.97951,610.664062 C1485.97951,580.148438 1470.35841,563.619141 1442.74904,563.619141 C1406.7842,563.619141 1389.89162,591.410156 1389.89162,625.740234 L1389.89162,732 L1361.37404,732 Z M1583.49501,732 L1583.49501,541.458984 L1612.01259,541.458984 L1612.01259,732 L1583.49501,732 Z M1576.22939,482.0625 C1576.22939,469.529297 1585.6747,460.447266 1597.48134,460.447266 C1610.01454,460.447266 1619.27822,469.529297 1619.27822,482.0625 C1619.27822,494.232422 1610.01454,503.314453 1597.48134,503.314453 C1585.6747,503.314453 1576.22939,494.232422 1576.22939,482.0625 Z M1691.54567,541.458984 L1691.54567,493.505859 L1720.06325,493.505859 L1720.06325,541.458984 L1763.29372,541.458984 L1763.29372,565.253906 L1720.06325,565.253906 L1720.06325,680.232422 C1720.06325,703.664062 1727.51052,709.476562 1751.66872,709.476562 C1756.0281,709.476562 1763.47536,708.931641 1766.38161,708.568359 L1766.38161,732.363281 C1763.83864,732.908203 1750.39724,733.816406 1744.4031,733.816406 C1699.7195,733.816406 1691.54567,716.015625 1691.54567,678.779297 L1691.54567,565.253906 L1662.48317,565.253906 L1662.48317,541.458984 L1691.54567,541.458984 Z M1821.93813,732 L1821.93813,541.458984 L1850.45571,541.458984 L1850.45571,732 L1821.93813,732 Z M1814.67251,482.0625 C1814.67251,469.529297 1824.11782,460.447266 1835.92446,460.447266 C1848.45766,460.447266 1857.72133,469.529297 1857.72133,482.0625 C1857.72133,494.232422 1848.45766,503.314453 1835.92446,503.314453 C1824.11782,503.314453 1814.67251,494.232422 1814.67251,482.0625 Z M1971.40286,735.087891 C1934.52981,735.087891 1909.28176,711.65625 1909.28176,676.599609 C1909.28176,643.541016 1932.35012,620.835938 1975.94387,620.835938 L2026.80325,620.835938 L2026.80325,601.400391 C2026.80325,575.425781 2010.45559,563.619141 1984.48098,563.619141 C1959.05129,563.619141 1948.51614,573.246094 1944.3384,586.869141 L1916.54739,586.869141 C1919.63528,554.355469 1945.97317,538.371094 1985.75246,538.371094 C2023.897,538.371094 2055.68411,555.082031 2055.68411,601.21875 L2055.68411,732 L2028.07473,732 L2028.07473,706.388672 L2026.80325,706.388672 C2016.99465,722.009766 1999.55715,735.087891 1971.40286,735.087891 Z M1978.66848,709.839844 C2006.09621,709.839844 2026.80325,691.130859 2026.80325,666.427734 L2026.80325,644.630859 L1976.48879,644.630859 C1949.42434,644.630859 1938.70754,658.253906 1938.70754,676.054688 C1938.70754,699.304688 1957.77981,709.839844 1978.66848,709.839844 Z M2129.40469,541.458984 L2129.40469,493.505859 L2157.92227,493.505859 L2157.92227,541.458984 L2201.15274,541.458984 L2201.15274,565.253906 L2157.92227,565.253906 L2157.92227,680.232422 C2157.92227,703.664062 2165.36953,709.476562 2189.52774,709.476562 C2193.88711,709.476562 2201.33438,708.931641 2204.24063,708.568359 L2204.24063,732.363281 C2201.69766,732.908203 2188.25625,733.816406 2182.26211,733.816406 C2137.57852,733.816406 2129.40469,716.015625 2129.40469,678.779297 L2129.40469,565.253906 L2100.34219,565.253906 L2100.34219,541.458984 L2129.40469,541.458984 Z M2259.79715,732 L2259.79715,541.458984 L2288.31472,541.458984 L2288.31472,732 L2259.79715,732 Z M2252.53152,482.0625 C2252.53152,469.529297 2261.97683,460.447266 2273.78347,460.447266 C2286.31668,460.447266 2295.58035,469.529297 2295.58035,482.0625 C2295.58035,494.232422 2286.31668,503.314453 2273.78347,503.314453 C2261.97683,503.314453 2252.53152,494.232422 2252.53152,482.0625 Z M2404.72085,732 L2336.60562,541.458984 L2368.39273,541.458984 L2417.98062,701.302734 L2419.2521,701.302734 L2472.29117,541.458984 L2502.80679,541.458984 L2433.23843,732 L2404.72085,732 Z M2613.03714,735.087891 C2562.35941,735.087891 2533.11527,702.210938 2533.11527,652.259766 L2533.11527,621.380859 C2533.11527,570.884766 2565.4473,538.371094 2610.67581,538.371094 C2655.90433,538.371094 2688.23636,570.884766 2688.23636,621.380859 L2688.23636,644.630859 L2561.81448,644.630859 L2561.81448,654.439453 C2561.81448,685.318359 2579.25198,709.839844 2612.8555,709.839844 C2636.1055,709.839844 2651.54495,698.759766 2655.17777,686.953125 L2685.51175,686.953125 C2682.42386,706.388672 2659.53714,735.087891 2613.03714,735.087891 Z M2561.81448,622.470703 L2659.53714,622.470703 L2659.53714,619.019531 C2659.53714,585.597656 2640.10159,563.619141 2610.67581,563.619141 C2581.25003,563.619141 2561.81448,585.597656 2561.81448,619.019531 L2561.81448,622.470703 Z" id="Outlines"></path>
        </g>
        <g id="Icon-Padding-Black" transform="translate(250.000000, 100.000000)">
            <g id="Glyph" stroke-width="1" fill-rule="evenodd" transform="translate(100.000000, 100.000000)">
                <mask id="mask-2" fill="white">
                    <use xlink:href="#path-1"></use>
                </mask>
                <use id="Mask" fill="#6F6F6F" xlink:href="#path-1"></use>
                <g mask="url(#mask-2)">
                    <g transform="translate(-21.000000, -31.000000)">
                        <path d="M385.410029,218.066017 L950.722005,218.066017 L950.722005,818.066017 L385.410029,818.066017 C219.724605,818.066017 85.4100295,683.751442 85.4100295,518.066017 L85.4100295,518.066017 C85.4100295,352.380592 219.724605,218.066017 385.410029,218.066017 Z" id="Rectangle" stroke="none" fill="#000000" fill-rule="evenodd" opacity="0.5" transform="translate(518.066017, 518.066017) rotate(45.000000) translate(-518.066017, -518.066017) "></path>
                        <path d="M588.933461,652.766072 L604.013522,667.846133 L604.606983,640.585062 C607.330548,638.311083 610.01538,635.982833 612.65995,633.601114 L604.763512,633.394782 L605.019668,621.628027 C600.696712,625.59009 596.258759,629.39998 591.713173,633.053779 L568.617687,632.450298 L578.903573,642.736184 C534.190351,674.481145 480.492043,692 424,692 C275.987687,692 156,572.012313 156,424 C156,275.987687 275.987687,156 424,156 C484.261066,156 541.313516,175.947622 587.612408,211.710535 L576.429937,222.893006 L601.018803,222.774742 C604.752755,226.064136 608.404265,229.463986 611.968754,232.971782 L611.927674,222.722274 L621.466068,222.676397 C618.33761,219.607554 615.14515,216.617406 611.891543,213.707507 L611.786648,187.536295 L597.586585,201.736358 C548.620389,163.427742 487.971652,142 424,142 C268.255701,142 142,268.255701 142,424 C142,579.744299 268.255701,706 424,706 C484.189252,706 541.487199,687.040616 588.933461,652.766072 Z" id="Outlined-C" stroke="#FF324A" stroke-width="64" fill="none"></path>
                        <path d="M526.195959,432.622366 L534.681241,424.137085 L531.852814,421.308658 L523.367532,429.793939 L495.083261,401.509668 L503.568542,393.024387 L500.740115,390.195959 L492.254834,398.681241 L463.970563,370.39697 L472.455844,361.911688 L469.627417,359.083261 L461.142136,367.568542 L432.857864,339.284271 L461.142136,311 L582.764502,432.622366 L554.480231,460.906638 L526.195959,432.622366 Z M435.977705,313.426407 L407.693434,285.142136 L421.83557,271 L450.119841,299.284271 L435.977705,313.426407 Z M430.320851,319.083261 L320.012193,429.391919 L291.727922,401.107648 L402.03658,290.79899 L430.320851,319.083261 Z M421.857864,397 C432.903559,397 441.857864,405.954305 441.857864,417 L441.857864,557 C441.857864,568.045695 432.903559,577 421.857864,577 C410.812169,577 401.857864,568.045695 401.857864,557 L401.857864,417 C401.857864,405.954305 410.812169,397 421.857864,397 Z M279,442.119841 L286.071068,406.764502 L314.355339,435.048773 L279,442.119841 Z" id="Arrow" stroke="none" fill="#FFFFFF" fill-rule="evenodd"></path>
                    </g>
                </g>
            </g>
            <rect id="Rectangle-2" x="100" y="100" width="800" height="800" rx="100"></rect>
        </g>
    </g>
</svg>