<?xml version="1.0" encoding="utf-8"?>
<!-- Generator: Adobe Illustrator 23.0.1, SVG Export Plug-In . SVG Version: 6.00 Build 0)  -->
<svg version="1.1" id="Layer_1" xmlns="http://www.w3.org/2000/svg" xmlns:xlink="http://www.w3.org/1999/xlink" x="0px" y="0px"
	 viewBox="0 0 3790 800" style="enable-background:new 0 0 3790 800;" xml:space="preserve">
<style type="text/css">
	.st0{fill:#FFFFFF;}
	.st1{font-family:'Raleway-Bold';}
	.st2{font-size:372px;}
	.st3{letter-spacing:-1;}
	.st4{font-family:'Raleway-Medium';}
	.st5{fill-rule:evenodd;clip-rule:evenodd;fill:#FFFFFF;}
	.st6{clip-path:url(#SVGID_1_);}
	.st7{fill-rule:evenodd;clip-rule:evenodd;fill:#6F6F6F;}
	.st8{fill-rule:evenodd;clip-rule:evenodd;fill:#373737;}
	.st9{fill:none;stroke:#FF324A;stroke-width:50;}
</style>
<title>Wordmark-Light Text-No Padding</title>
<desc>Created with Sketch.</desc>
<g id="Wordmark-Light-Text-No-Padding">
	<g id="Logo-Text---Light" transform="translate(1000.000000, 0.000000)">
		<text transform="matrix(1 0 0 1 1.86 351.4872)" class="st0 st1 st2 st3">C</text>
		<text transform="matrix(1 0 0 1 255.2655 351.4872)" class="st0 st1 st2 st3"> </text>
		<text transform="matrix(1 0 0 1 253.4095 350)" class="st0 st4 st2 st3">ornell </text>
		<text transform="matrix(1 0 0 1 1353.168 351.4872)" class="st0 st1 st2 st3">D</text>
		<text transform="matrix(1 0 0 1 1617.6738 351.4872)" class="st0 st1 st2 st3"> </text>
		<text transform="matrix(1 0 0 1 1615.8181 350)" class="st0 st4 st2 st3">esign</text>
		<text transform="matrix(1 0 0 1 2547.3821 350)" class="st0 st1 st2 st3"> </text>
		<text transform="matrix(1 0 0 1 0 750)" class="st0 st4 st2 st3">&amp; </text>
		<text transform="matrix(1 0 0 1 348.9722 751.4872)" class="st0 st1 st2 st3">T</text>
		<text transform="matrix(1 0 0 1 577.3938 751.4872)" class="st0 st1 st2 st3"> </text>
		<text transform="matrix(1 0 0 1 575.5383 750)" class="st0 st4 st2 st3">ech </text>
		<text transform="matrix(1 0 0 1 1313.2866 751.4872)" class="st0 st1 st2 st3">I</text>
		<text transform="matrix(1 0 0 1 1417.835 751.4872)" class="st0 st1 st2 st3"> </text>
		<text transform="matrix(1 0 0 1 1415.9766 750)" class="st0 st4 st2 st3">nitiative</text>
		<path id="Outlines" class="st5" d="M11.5,197.1c0-16.1,2.9-32.1,8.7-47.8s14.3-29.8,25.5-42.2s24.8-22.4,40.9-30.1
			s34.5-11.5,55.1-11.5c24.3,0,45.3,5.3,63.1,16s30.9,24.6,39.6,41.7L205,150.2c-3.5-7.4-7.7-13.7-12.6-18.8
			c-5-5.1-10.3-9.1-16-12.1s-11.7-5.1-17.9-6.5s-12.3-2-18.2-2c-12.9,0-24.1,2.6-33.7,7.8c-9.5,5.2-17.5,12-23.8,20.3
			c-6.3,8.3-11.1,17.7-14.3,28.3s-4.8,21-4.8,31.4c0,11.7,1.9,22.9,5.6,33.7c3.7,10.8,9,20.3,15.8,28.5c6.8,8.2,15,14.8,24.6,19.7
			s20,7.4,31.4,7.4c6,0,12.2-0.7,18.6-2.2s12.6-3.8,18.4-7.1c5.8-3.2,11.2-7.4,16.2-12.5c5-5.1,8.9-11.2,11.9-18.4l42,24.2
			c-4.2,9.9-10.2,18.7-18,26.2s-16.6,13.9-26.4,19.2c-9.8,5.2-20.3,9.2-31.4,11.9c-11.2,2.7-22.1,4.1-32.7,4.1
			c-18.8,0-36.1-4-51.7-11.9S58.7,303,47.4,290.3S27.3,263,21,246.7S11.5,213.9,11.5,197.1z M365.4,334.7c-15.4,0-29.2-2.7-41.5-8.2
			s-22.8-12.8-31.4-21.9c-8.7-9.2-15.4-19.9-20.1-32.2s-7.1-25.1-7.1-38.5c0-13.4,2.4-26.2,7.1-38.5s11.5-23,20.3-32.2
			c8.8-9.2,19.3-16.5,31.6-21.9s26-8.2,41.1-8.2s28.8,2.7,41.1,8.2s22.8,12.8,31.6,21.9c8.8,9.2,15.6,19.9,20.3,32.2
			s7.1,25.1,7.1,38.5c0,13.4-2.4,26.2-7.1,38.5s-11.5,23-20.3,32.2c-8.8,9.2-19.3,16.5-31.6,21.9S380.5,334.7,365.4,334.7z
			 M307.3,234.3c0,9.4,1.5,18.1,4.5,26c3,7.9,7.1,14.8,12.3,20.6c5.2,5.8,11.3,10.4,18.4,13.8c7.1,3.3,14.7,5,22.9,5
			s15.8-1.7,22.9-5c7.1-3.3,13.2-8,18.4-14c5.2-6,9.3-12.9,12.3-20.8s4.5-16.6,4.5-26c0-9.2-1.5-17.8-4.5-25.9s-7.1-15.1-12.3-21
			c-5.2-6-11.3-10.6-18.4-13.9c-7.1-3.3-14.7-5-22.9-5c-7.9,0-15.4,1.7-22.5,5.2c-7.1,3.5-13.2,8.2-18.4,14.1c-5.2,6-9.4,13-12.5,21
			C308.9,216.5,307.3,225.1,307.3,234.3z M609.4,171.8c-15.9,0.5-29.9,4.2-42.2,11c-12.3,6.8-21,16.6-26.2,29.2v119h-40.9V136.4H538
			V180c6.7-13.4,15.4-24.1,26.2-32.2c10.8-8.1,22.4-12.5,34.8-13.2h6.1c1.6,0,3,0.1,4.3,0.4V171.8z M811.8,331h-40.9V222
			c0-18.4-2.9-31.7-8.7-40c-5.8-8.3-14.4-12.5-25.9-12.5c-6,0-11.9,1.1-17.9,3.3s-11.5,5.4-16.7,9.5c-5.2,4.1-9.9,8.9-14,14.5
			c-4.1,5.6-7.3,11.7-9.5,18.4V331h-40.9V136.4h37.2v39.1c7.4-13.1,18.2-23.5,32.4-31.1c14.1-7.6,29.8-11.3,46.9-11.3
			c11.7,0,21.2,2.1,28.6,6.3c7.4,4.2,13.3,10,17.7,17.3s7.4,15.7,9.1,25.3c1.7,9.5,2.6,19.7,2.6,30.3V331z M945.8,334.7
			c-15.1,0-28.9-2.7-41.3-8c-12.4-5.3-23-12.6-31.8-21.8c-8.8-9.2-15.6-19.8-20.5-32c-4.8-12.2-7.3-25-7.3-38.7
			c0-13.6,2.4-26.6,7.3-38.9s11.7-23.1,20.5-32.4c8.8-9.3,19.4-16.6,31.8-21.9c12.4-5.3,26.3-8,41.7-8c15.1,0,28.8,2.7,41.1,8.2
			s22.8,12.7,31.4,21.8c8.7,9.1,15.3,19.6,19.9,31.6s6.9,24.6,6.9,37.8c0,3-0.1,5.8-0.4,8.4c-0.2,2.6-0.5,4.8-0.7,6.5H888.5
			c0.7,8.7,2.8,16.5,6.1,23.4s7.7,13,13,18c5.3,5.1,11.4,9,18.2,11.7c6.8,2.7,13.9,4.1,21.4,4.1c5.5,0,10.8-0.7,16.2-2
			c5.3-1.4,10.2-3.3,14.7-6s8.4-5.8,11.9-9.5c3.5-3.7,6.2-7.8,8.2-12.3l35,10c-6.7,14.6-17.8,26.6-33.3,35.9
			C984.4,330.1,966.3,334.7,945.8,334.7z M1004.9,219c-0.7-8.2-2.8-15.7-6.1-22.7s-7.6-12.8-12.8-17.7c-5.2-4.8-11.3-8.6-18.2-11.3
			c-6.9-2.7-14.3-4.1-21.9-4.1s-14.9,1.4-21.8,4.1c-6.8,2.7-12.8,6.5-18,11.3c-5.2,4.8-9.4,10.7-12.6,17.7c-3.2,6.9-5.2,14.5-6,22.7
			H1004.9z M1077.5,59.4h40.9v215.4c0,7.2,1.9,12.8,5.6,16.9c3.7,4.1,8.9,6.1,15.6,6.1c2.7,0,5.9-0.5,9.5-1.5c3.6-1,7-2.1,10.2-3.3
			l6,32c-6,2.7-13,4.9-21.2,6.5c-8.2,1.6-15.5,2.4-21.9,2.4c-14.1,0-25.1-3.8-32.9-11.5s-11.7-18.6-11.7-32.7V59.4z M1187.6,59.4
			h40.9v215.4c0,7.2,1.9,12.8,5.6,16.9s8.9,6.1,15.6,6.1c2.7,0,5.9-0.5,9.5-1.5c3.6-1,7-2.1,10.2-3.3l6,32c-6,2.7-13,4.9-21.2,6.5
			c-8.2,1.6-15.5,2.4-21.9,2.4c-14.1,0-25.1-3.8-32.9-11.5s-11.7-18.6-11.7-32.7V59.4z M1378.8,331V66.9h96
			c21.6,0,40.5,3.5,56.7,10.4c16.2,6.9,29.8,16.4,40.7,28.3c10.9,11.9,19.1,25.9,24.6,41.8c5.5,16,8.2,33,8.2,51.1
			c0,20.1-3,38.3-9.1,54.5s-14.8,30.1-26.2,41.7c-11.4,11.5-25.1,20.5-41.1,26.8s-33.9,9.5-53.8,9.5H1378.8z M1553.3,198.6
			c0-12.6-1.7-24.3-5.2-35c-3.5-10.7-8.6-19.8-15.3-27.5c-6.7-7.7-14.9-13.6-24.7-17.9c-9.8-4.2-20.9-6.3-33.3-6.3h-44.6V286h44.6
			c12.6,0,23.9-2.2,33.7-6.7c9.8-4.5,18-10.6,24.6-18.4c6.6-7.8,11.6-17,15.1-27.7S1553.3,211,1553.3,198.6z M1728.5,334.7
			c-15.1,0-28.9-2.7-41.3-8c-12.4-5.3-23-12.6-31.8-21.8c-8.8-9.2-15.6-19.8-20.5-32c-4.8-12.2-7.3-25-7.3-38.7
			c0-13.6,2.4-26.6,7.3-38.9c4.8-12.3,11.7-23.1,20.5-32.4c8.8-9.3,19.4-16.6,31.8-21.9c12.4-5.3,26.3-8,41.7-8
			c15.1,0,28.8,2.7,41.1,8.2c12.3,5.5,22.8,12.7,31.4,21.8c8.7,9.1,15.3,19.6,19.9,31.6s6.9,24.6,6.9,37.8c0,3-0.1,5.8-0.4,8.4
			c-0.2,2.6-0.5,4.8-0.7,6.5h-155.9c0.7,8.7,2.8,16.5,6.1,23.4s7.7,13,13,18c5.3,5.1,11.4,9,18.2,11.7c6.8,2.7,13.9,4.1,21.4,4.1
			c5.5,0,10.8-0.7,16.2-2c5.3-1.4,10.2-3.3,14.7-6c4.5-2.6,8.4-5.8,11.9-9.5c3.5-3.7,6.2-7.8,8.2-12.3l35,10
			c-6.7,14.6-17.8,26.6-33.3,35.9S1749.1,334.7,1728.5,334.7z M1787.7,219c-0.7-8.2-2.8-15.7-6.1-22.7s-7.6-12.8-12.8-17.7
			s-11.3-8.6-18.2-11.3c-6.9-2.7-14.3-4.1-21.9-4.1c-7.7,0-14.9,1.4-21.8,4.1c-6.8,2.7-12.8,6.5-18,11.3
			c-5.2,4.8-9.4,10.7-12.6,17.7s-5.2,14.5-6,22.7H1787.7z M1930.5,334.7c-15.6,0-31.2-2.5-46.7-7.6c-15.5-5.1-28.8-12.3-40-21.8
			l16.4-26c11.7,8.4,23.2,14.8,34.6,19.2c11.4,4.3,23.1,6.5,35,6.5c12.2,0,21.8-2.4,28.8-7.1c7.1-4.7,10.6-11.4,10.6-20.1
			c0-8.2-4-14.1-11.9-17.9s-20.3-7.8-37.2-12.3c-12.2-3.2-22.6-6.3-31.2-9.3c-8.7-3-15.7-6.4-21.2-10.4c-5.5-4-9.4-8.6-11.9-13.8
			s-3.7-11.5-3.7-19c0-9.9,1.9-18.7,5.8-26.4s9.2-14.2,16-19.5s14.8-9.4,24-12.1s19.1-4.1,29.8-4.1c14.6,0,28.3,2.2,40.9,6.7
			c12.6,4.5,23.9,10.9,33.9,19.3l-17.5,24.6c-18.1-14.4-37.3-21.6-57.7-21.6c-10.4,0-19.2,2.2-26.2,6.5
			c-7.1,4.3-10.6,11.2-10.6,20.6c0,4,0.7,7.3,2.2,10s3.9,5.1,7.3,7.1s7.7,3.8,13,5.4c5.3,1.6,12,3.4,19.9,5.4
			c13.1,3.2,24.5,6.4,34,9.7s17.4,7,23.6,11.3c6.2,4.3,10.8,9.4,13.8,15.3c3,5.8,4.5,12.8,4.5,21c0,18.6-7,33.3-21,44.1
			S1954.6,334.7,1930.5,334.7z M2042.5,331V136.4h40.9V331H2042.5z M2042.5,104.5v-45h40.9v45H2042.5z M2207.7,332.9
			c-13.1,0-25.2-2.7-36.1-8s-20.3-12.6-28.1-21.8c-7.8-9.2-13.9-19.7-18.2-31.6c-4.3-11.9-6.5-24.4-6.5-37.6c0-13.9,2.2-27,6.7-39.2
			c4.5-12.3,10.7-22.9,18.6-32s17.4-16.2,28.5-21.6c11-5.3,23.2-8,36.6-8c15.6,0,29.3,3.7,41.1,11.2s21.5,17.1,29.2,29v-36.8h36.1
			v189c0,14.1-2.6,26.7-7.8,37.6s-12.5,20.1-21.8,27.7c-9.3,7.6-20.3,13.3-32.9,17.3c-12.6,4-26.3,6-40.9,6
			c-21.6,0-39.5-3.7-53.8-11c-14.3-7.3-26.2-17.5-35.9-30.7l23.1-21.6c7.4,10.4,17.1,18.4,28.8,23.8c11.8,5.5,24.4,8.2,37.8,8.2
			c8.4,0,16.4-1.1,24-3.3c7.6-2.2,14.2-5.7,19.9-10.4c5.7-4.7,10.2-10.7,13.6-17.9c3.3-7.2,5-15.7,5-25.7v-29.8
			c-6.9,11.9-16.5,21.1-28.6,27.5C2233.9,329.6,2221.1,332.9,2207.7,332.9z M2221.1,299.8c6.2,0,12.2-1.1,17.9-3.2s11-5,15.8-8.6
			c4.8-3.6,9-7.7,12.5-12.3s6-9.5,7.4-14.7v-51c-2.5-6.2-5.7-11.8-9.7-16.9c-4-5.1-8.5-9.5-13.6-13.2c-5.1-3.7-10.5-6.6-16.2-8.7
			c-5.7-2.1-11.4-3.2-17.1-3.2c-8.9,0-16.9,1.9-24,5.8c-7.1,3.8-13.1,8.9-18,15.3c-5,6.3-8.8,13.5-11.5,21.4s-4.1,16.1-4.1,24.6
			c0,8.9,1.6,17.3,4.6,25.1c3.1,7.8,7.4,14.6,12.8,20.5s11.8,10.5,19.2,14C2204.4,298,2212.4,299.8,2221.1,299.8z M2537.3,331h-40.9
			V222c0-18.4-2.9-31.7-8.7-40c-5.8-8.3-14.4-12.5-25.9-12.5c-6,0-11.9,1.1-17.9,3.3c-6,2.2-11.5,5.4-16.7,9.5s-9.9,8.9-13.9,14.5
			s-7.3,11.7-9.5,18.4V331h-40.9V136.4h37.2v39.1c7.4-13.1,18.2-23.5,32.4-31.1c14.1-7.6,29.8-11.3,46.9-11.3
			c11.7,0,21.2,2.1,28.6,6.3c7.4,4.2,13.3,10,17.7,17.3s7.4,15.7,9.1,25.3c1.7,9.5,2.6,19.7,2.6,30.3V331z M203.9,731l-24.2-25.3
			c-10.9,9.4-22.9,16.6-35.9,21.6c-13,5-26.6,7.4-40.7,7.4c-12.9,0-24.7-2-35.3-6s-19.8-9.4-27.5-16.2s-13.6-14.9-17.9-24.2
			S16,669.2,16,658.8c0-8.4,1.3-16.2,3.9-23.4s6.1-13.9,10.6-20.1c4.5-6.2,9.7-11.9,15.6-17.1c6-5.2,12.2-10,18.6-14.5
			c-5.7-6.2-10.5-11.9-14.3-17.1s-6.9-10.1-9.3-14.7c-2.4-4.6-4.1-9.1-5.2-13.4s-1.7-8.9-1.7-13.6c0-8.9,1.8-17.2,5.4-24.7
			c3.6-7.6,8.5-14.1,14.7-19.5c6.2-5.5,13.6-9.7,22.1-12.6s17.8-4.5,27.7-4.5c8.9,0,17.5,1.2,25.7,3.7s15.4,6.1,21.6,10.8
			c6.2,4.7,11.1,10.6,14.7,17.7c3.6,7.1,5.4,15.1,5.4,24c0,7.4-1.3,14.3-3.9,20.5c-2.6,6.2-6.1,12.1-10.6,17.7
			c-4.5,5.6-9.7,10.9-15.8,16c-6.1,5.1-12.6,10-19.5,14.7l59.5,62.5c4.2-8.7,7.5-18,9.9-28.1c2.4-10,3.5-20.8,3.5-32.2H228
			c-0.2,16.9-2.4,32.4-6.3,46.7c-4,14.3-9.5,27.1-16.7,38.5l52.8,55.1H203.9z M107.5,702.4c9.2,0,18-1.7,26.6-5.2
			c8.6-3.5,16.4-8.4,23.6-14.9l-68.4-72.5c-10.2,7.2-18.4,14.8-24.6,22.7c-6.2,7.9-9.3,16.9-9.3,26.8c0,6.4,1.4,12.3,4.1,17.7
			c2.7,5.3,6.5,9.9,11.3,13.6c4.8,3.7,10.4,6.6,16.6,8.7C93.6,701.3,100.3,702.4,107.5,702.4z M71.8,523.8c0,2.5,0.4,4.9,1.1,7.3
			s2,5,3.9,8s4.5,6.3,7.8,10c3.3,3.7,7.5,8.3,12.5,13.8c11.4-7.2,20.4-14.1,27-20.6c6.6-6.6,9.9-13.8,9.9-21.8s-2.8-14.3-8.4-19.2
			s-12.7-7.3-21.4-7.3c-9.4,0-17.2,2.9-23.2,8.7C74.8,508.6,71.8,515.6,71.8,523.8z M572.2,511.9h-84.4V731h-51V511.9h-84.4v-45
			h219.9V511.9z M688.3,734.7c-15.1,0-28.9-2.7-41.3-8c-12.4-5.3-23-12.6-31.8-21.8c-8.8-9.2-15.6-19.8-20.5-32
			c-4.8-12.2-7.3-25-7.3-38.7c0-13.6,2.4-26.6,7.3-38.9c4.8-12.3,11.7-23.1,20.5-32.4s19.4-16.6,31.8-21.9c12.4-5.3,26.3-8,41.7-8
			c15.1,0,28.8,2.7,41.1,8.2c12.3,5.5,22.8,12.7,31.4,21.8s15.3,19.6,19.9,31.6s6.9,24.6,6.9,37.8c0,3-0.1,5.8-0.4,8.4
			c-0.2,2.6-0.5,4.8-0.7,6.5H631c0.7,8.7,2.8,16.5,6.1,23.4s7.7,13,13,18c5.3,5.1,11.4,9,18.2,11.7c6.8,2.7,13.9,4.1,21.4,4.1
			c5.5,0,10.8-0.7,16.2-2s10.2-3.3,14.7-6c4.5-2.6,8.4-5.8,11.9-9.5c3.5-3.7,6.2-7.8,8.2-12.3l35,10c-6.7,14.6-17.8,26.6-33.3,35.9
			S708.8,734.7,688.3,734.7z M747.4,619c-0.7-8.2-2.8-15.7-6.1-22.7c-3.3-6.9-7.6-12.8-12.8-17.7c-5.2-4.8-11.3-8.6-18.2-11.3
			s-14.3-4.1-21.9-4.1c-7.7,0-14.9,1.4-21.8,4.1s-12.8,6.5-18,11.3c-5.2,4.8-9.4,10.7-12.6,17.7s-5.2,14.5-6,22.7H747.4z
			 M806.9,633.5c0-13.6,2.4-26.5,7.1-38.7c4.7-12.2,11.5-22.8,20.3-32c8.8-9.2,19.4-16.4,31.8-21.8c12.4-5.3,26.3-8,41.7-8
			c20.1,0,37.4,4.4,51.9,13.2c14.5,8.8,25.4,20.5,32.5,35.2l-39.8,12.6c-4.7-8.2-11-14.6-19-19.2s-16.7-6.9-26.4-6.9
			c-8.2,0-15.8,1.6-22.9,4.8c-7.1,3.2-13.2,7.7-18.4,13.6c-5.2,5.8-9.3,12.7-12.3,20.6s-4.5,16.7-4.5,26.4c0,9.4,1.5,18.2,4.7,26.2
			c3.1,8.1,7.3,15.1,12.6,21c5.3,6,11.5,10.6,18.6,13.9s14.6,5,22.5,5c5,0,9.9-0.7,14.9-2s9.5-3.3,13.6-5.8
			c4.1-2.5,7.7-5.3,10.8-8.6c3.1-3.2,5.4-6.7,6.9-10.4l40.2,11.9c-6.4,14.6-17.2,26.6-32.4,35.9c-15.1,9.3-33,13.9-53.6,13.9
			c-15.1,0-28.9-2.7-41.3-8.2c-12.4-5.5-23-12.8-31.8-22.1c-8.8-9.3-15.6-20-20.5-32.2S806.9,647.2,806.9,633.5z M1200.2,731h-40.9
			V622c0-17.9-3.2-31.1-9.5-39.6c-6.3-8.6-15.4-12.8-27.3-12.8c-5.7,0-11.4,1.1-17.1,3.3c-5.7,2.2-11.1,5.4-16.2,9.5
			c-5.1,4.1-9.6,8.9-13.6,14.5s-6.9,11.7-8.9,18.4V731h-40.9V459.4h40.9v116.1c7.4-13.4,17.5-23.8,30.3-31.2
			c12.8-7.4,26.7-11.2,41.9-11.2c12.2,0,22.1,2.2,29.9,6.5s14.1,10.1,18.8,17.3s8,15.6,9.9,25.1c1.9,9.5,2.8,19.7,2.8,30.3V731z
			 M1339,731V466.9h51.3V731H1339z M1615,731h-40.9V622c0-18.4-2.9-31.7-8.7-40c-5.8-8.3-14.4-12.5-25.9-12.5
			c-6,0-11.9,1.1-17.9,3.3c-6,2.2-11.5,5.4-16.7,9.5c-5.2,4.1-9.9,8.9-13.9,14.5s-7.3,11.7-9.5,18.4V731h-40.9V536.4h37.2v39.1
			c7.4-13.1,18.2-23.5,32.4-31.1s29.8-11.3,46.9-11.3c11.7,0,21.2,2.1,28.6,6.3c7.4,4.2,13.3,10,17.7,17.3
			c4.3,7.3,7.4,15.7,9.1,25.3c1.7,9.5,2.6,19.7,2.6,30.3V731z M1660.8,731V536.4h40.9V731H1660.8z M1660.8,504.5v-45h40.9v45H1660.8
			z M1857.2,721c-5.2,2.5-12.4,5.3-21.6,8.4c-9.2,3.1-19,4.7-29.4,4.7c-6.4,0-12.5-0.9-18.2-2.6c-5.7-1.7-10.7-4.3-15.1-7.8
			c-4.3-3.5-7.7-8-10.2-13.6c-2.5-5.6-3.7-12.3-3.7-20.3V568.1h-25.7v-31.6h25.7v-64h40.9v64h42.4v31.6h-42.4v108.6
			c0.5,6.9,2.7,12,6.5,15.1c3.8,3.1,8.6,4.6,14.3,4.6c5.7,0,11.2-1,16.4-3s9.1-3.6,11.5-4.8L1857.2,721z M1883.6,731V536.4h40.9V731
			H1883.6z M1883.6,504.5v-45h40.9v45H1883.6z M2023.5,734.7c-9.4,0-18.2-1.5-26.2-4.6c-8.1-3.1-15-7.4-20.8-12.8
			c-5.8-5.5-10.4-11.9-13.8-19.3c-3.3-7.4-5-15.5-5-24.2c0-9.2,2-17.5,6-24.9c4-7.4,9.6-13.9,16.9-19.3c7.3-5.5,16-9.7,26-12.6
			s21.1-4.5,33.3-4.5c9.2,0,18.2,0.8,27.2,2.4c8.9,1.6,17,3.8,24.2,6.5v-13.4c0-14.4-4.1-25.6-12.3-33.7c-8.2-8.1-20-12.1-35.3-12.1
			c-10.4,0-20.6,1.9-30.7,5.8c-10,3.8-20.4,9.4-31.1,16.6l-12.6-26c25-16.9,51.1-25.3,78.1-25.3c26.8,0,47.6,6.8,62.5,20.5
			c14.9,13.6,22.3,33.2,22.3,58.8v70.3c0,8.7,3.6,13.1,10.8,13.4v35c-4,0.7-7.4,1.2-10.2,1.5c-2.9,0.2-5.6,0.4-8.4,0.4
			c-7.9,0-14.1-2-18.4-6c-4.3-4-7-9.1-8-15.3l-1.1-12.3c-8.7,11.4-19.4,20.1-32.2,26.2C2051.9,731.7,2038.2,734.7,2023.5,734.7z
			 M2034.7,704.6c9.9,0,19.3-1.8,28.1-5.4c8.8-3.6,15.7-8.6,20.6-15.1c5.2-4.5,7.8-9.2,7.8-14.1v-25.7c-6.9-2.7-14.3-4.8-22.1-6.3
			s-15.4-2.2-22.9-2.2c-14.6,0-26.6,3.2-35.9,9.5c-9.3,6.3-13.9,14.7-13.9,25.1c0,9.7,3.6,17.8,10.8,24.4
			C2014.3,701.3,2023.5,704.6,2034.7,704.6z M2286.5,721c-5.2,2.5-12.4,5.3-21.6,8.4c-9.2,3.1-19,4.7-29.4,4.7
			c-6.4,0-12.5-0.9-18.2-2.6c-5.7-1.7-10.7-4.3-15.1-7.8c-4.3-3.5-7.8-8-10.2-13.6s-3.7-12.3-3.7-20.3V568.1h-25.7v-31.6h25.7v-64
			h40.9v64h42.4v31.6h-42.4v108.6c0.5,6.9,2.7,12,6.5,15.1c3.8,3.1,8.6,4.6,14.3,4.6s11.2-1,16.4-3s9.1-3.6,11.5-4.8L2286.5,721z
			 M2313,731V536.4h40.9V731H2313z M2313,504.5v-45h40.9v45H2313z M2455.8,731l-74.4-194.6h42l55.8,160l56.2-160h38.7L2499.7,731
			H2455.8z M2682.8,734.7c-15.1,0-28.9-2.7-41.3-8c-12.4-5.3-23-12.6-31.8-21.8c-8.8-9.2-15.6-19.8-20.5-32
			c-4.8-12.2-7.3-25-7.3-38.7c0-13.6,2.4-26.6,7.3-38.9c4.8-12.3,11.7-23.1,20.5-32.4s19.4-16.6,31.8-21.9c12.4-5.3,26.3-8,41.7-8
			c15.1,0,28.8,2.7,41.1,8.2c12.3,5.5,22.8,12.7,31.4,21.8c8.7,9.1,15.3,19.6,19.9,31.6c4.6,12,6.9,24.6,6.9,37.8
			c0,3-0.1,5.8-0.4,8.4c-0.2,2.6-0.5,4.8-0.7,6.5h-155.9c0.7,8.7,2.8,16.5,6.1,23.4c3.3,6.9,7.7,13,13,18c5.3,5.1,11.4,9,18.2,11.7
			c6.8,2.7,13.9,4.1,21.4,4.1c5.5,0,10.9-0.7,16.2-2s10.2-3.3,14.7-6c4.5-2.6,8.4-5.8,11.9-9.5s6.2-7.8,8.2-12.3l35,10
			c-6.7,14.6-17.8,26.6-33.3,35.9C2721.4,730.1,2703.4,734.7,2682.8,734.7z M2741.9,619c-0.7-8.2-2.8-15.7-6.1-22.7
			c-3.3-6.9-7.6-12.8-12.8-17.7c-5.2-4.8-11.3-8.6-18.2-11.3c-6.9-2.7-14.3-4.1-21.9-4.1c-7.7,0-14.9,1.4-21.8,4.1
			s-12.8,6.5-18,11.3c-5.2,4.8-9.4,10.7-12.6,17.7c-3.2,6.9-5.2,14.5-6,22.7H2741.9z"/>
	</g>
	<g id="Icon-Rounded_1_">
		<defs>
			<path id="SVGID_3_" d="M100,0h600c55.2,0,100,44.8,100,100v600c0,55.2-44.8,100-100,100H100C44.8,800,0,755.2,0,700V100
				C0,44.8,44.8,0,100,0z"/>
		</defs>
		<clipPath id="SVGID_1_">
			<use xlink:href="#SVGID_3_"  style="overflow:visible;"/>
		</clipPath>
		<g id="Icon_1_" class="st6">
			<rect id="Base_1_" class="st7" width="800" height="800"/>
			<g id="Glyph-Shadow_1_">
				<path id="Shadow_1_" class="st8" d="M615.1,180.9L800,365.7V800H385.7L190.1,604.4c-36.5-35-62.5-81.2-77.9-138.7
					c-23.2-86.2,3.6-209,78.2-284.3c70.1-70.8,177-97.3,259.5-84.1c29.2,4.7,59.3,12.8,88.6,28.2c11.5,6.1,28,14.3,46.8,29.2
					C597.8,164.7,607.7,173.4,615.1,180.9z"/>
				<g id="Glyph-Light_1_">
					<path id="Arrow_1_" class="st5" d="M505.2,401.6l8.5-8.5l-2.8-2.8l-8.5,8.5l-28.3-28.3l8.5-8.5l-2.8-2.8l-8.5,8.5L443,339.4
						l8.5-8.5l-2.8-2.8l-8.5,8.5l-28.3-28.3l28.3-28.3l121.6,121.6l-28.3,28.3L505.2,401.6z M415,282.4l-28.3-28.3l14.1-14.1
						l28.3,28.3L415,282.4z M409.3,288.1L299,398.4l-28.3-28.3L381,259.8L409.3,288.1z M400.9,366c11,0,20,9,20,20v140
						c0,11-9,20-20,20s-20-9-20-20V386C380.9,375,389.8,366,400.9,366z M258,411.1l7.1-35.4l28.3,28.3L258,411.1z"/>
					<path id="Arc_1_" class="st9" d="M590.1,191.5c-107.8-100.3-276.6-97.9-381.6,7.1c-107.4,107.4-107.4,281.5,0,388.9
						c105,105,273.7,107.3,381.6,7.1"/>
				</g>
			</g>
		</g>
	</g>
</g>
</svg>
