<?xml version="1.0" encoding="UTF-8"?>
<svg width="800px" height="800px" viewBox="0 0 800 800" version="1.1" xmlns="http://www.w3.org/2000/svg" xmlns:xlink="http://www.w3.org/1999/xlink">
    <!-- Generator: Sketch 50.2 (55047) - http://www.bohemiancoding.com/sketch -->
    <title>Glyph-Custom-Dark Arrow</title>
    <desc>Created with Sketch.</desc>
    <defs></defs>
    <g id="Glyph-Custom-Dark-Arrow" stroke="none" stroke-width="1" fill="none" fill-rule="evenodd">
        <g id="Glyph-Copy">
            <g id="Glyph" transform="translate(111.000000, 100.000000)">
                <path d="M464.933461,528.766072 L480.013522,543.846133 L480.606983,516.585062 C483.330548,514.311083 486.01538,511.982833 488.65995,509.601114 L480.763512,509.394782 L481.019668,497.628027 C476.696712,501.59009 472.258759,505.39998 467.713173,509.053779 L444.617687,508.450298 L454.903573,518.736184 C410.190351,550.481145 356.492043,568 300,568 C151.987687,568 32,448.012313 32,300 C32,151.987687 151.987687,32 300,32 C360.261066,32 417.313516,51.947622 463.612408,87.7105349 L452.429937,98.8930062 L477.018803,98.7747418 C480.752755,102.064136 484.404265,105.463986 487.968754,108.971782 L487.927674,98.7222737 L497.466068,98.6763971 C494.33761,95.6075538 491.14515,92.6174063 487.891543,89.7075071 L487.786648,63.5362954 L473.586585,77.7363579 C424.620389,39.427742 363.971652,18 300,18 C144.255701,18 18,144.255701 18,300 C18,455.744299 144.255701,582 300,582 C360.189252,582 417.487199,563.040616 464.933461,528.766072 Z" id="Outlined-C" stroke="#FF324A" stroke-width="64"></path>
                <path d="M393.195959,308.622366 L401.681241,300.137085 L398.852814,297.308658 L390.367532,305.793939 L362.083261,277.509668 L370.568542,269.024387 L367.740115,266.195959 L359.254834,274.681241 L330.970563,246.39697 L339.455844,237.911688 L336.627417,235.083261 L328.142136,243.568542 L299.857864,215.284271 L328.142136,187 L449.764502,308.622366 L421.480231,336.906638 L393.195959,308.622366 Z M302.977705,189.426407 L274.693434,161.142136 L288.83557,147 L317.119841,175.284271 L302.977705,189.426407 Z M297.320851,195.083261 L187.012193,305.391919 L158.727922,277.107648 L269.03658,166.79899 L297.320851,195.083261 Z M288.857864,273 C299.903559,273 308.857864,281.954305 308.857864,293 L308.857864,433 C308.857864,444.045695 299.903559,453 288.857864,453 C277.812169,453 268.857864,444.045695 268.857864,433 L268.857864,293 C268.857864,281.954305 277.812169,273 288.857864,273 Z M146,318.119841 L153.071068,282.764502 L181.355339,311.048773 L146,318.119841 Z" id="Arrow" fill="#4A4A4A"></path>
            </g>
        </g>
    </g>
</svg>