<?xml version="1.0" encoding="UTF-8"?>
<svg width="3790px" height="800px" viewBox="0 0 3790 800" version="1.1" xmlns="http://www.w3.org/2000/svg" xmlns:xlink="http://www.w3.org/1999/xlink">
    <!-- Generator: Sketch 52.3 (67297) - http://www.bohemiancoding.com/sketch -->
    <title>Wordmark-Dark Text-No Padding</title>
    <desc>Created with Sketch.</desc>
    <defs>
        <rect id="path-1" x="0" y="0" width="800" height="800" rx="100"></rect>
    </defs>
    <g id="Wordmark-Dark-Text-No-Padding" stroke="none" stroke-width="1" fill="none" fill-rule="evenodd">
        <g id="Logo-Text---Dark" transform="translate(1000.000000, 0.000000)" fill="#000000">
            <path d="M11.532,197.08 C11.532,180.959919 14.4459709,165.026079 20.274,149.278 C26.1020291,133.529921 34.5959442,119.456062 45.756,107.056 C56.9160558,94.655938 70.5559194,84.6120384 86.676,76.924 C102.796081,69.2359616 121.147897,65.392 141.732,65.392 C166.036122,65.392 187.053911,70.7239467 204.786,81.388 C222.518089,92.0520533 235.723957,105.939914 244.404,123.052 L204.972,150.208 C201.499983,142.767963 197.284025,136.506025 192.324,131.422 C187.363975,126.337975 182.032029,122.308015 176.328,119.332 C170.623971,116.355985 164.672031,114.186007 158.472,112.822 C152.271969,111.457993 146.19603,110.776 140.244,110.776 C127.347936,110.776 116.126048,113.379974 106.578,118.588 C97.0299523,123.796026 89.0940316,130.553958 82.77,138.862 C76.4459684,147.170042 71.6720161,156.593947 68.448,167.134 C65.2239839,177.674053 63.612,188.151948 63.612,198.568 C63.612,210.224058 65.4719814,221.445946 69.192,232.234 C72.9120186,243.022054 78.1819659,252.507959 85.002,260.692 C91.8220341,268.876041 100.005952,275.447975 109.554,280.408 C119.102048,285.368025 129.579943,287.848 140.988,287.848 C146.94003,287.848 153.139968,287.104007 159.588,285.616 C166.036032,284.127993 172.173971,281.772016 178.002,278.548 C183.830029,275.323984 189.223975,271.170025 194.184,266.086 C199.144025,261.001975 203.111985,254.864036 206.088,247.672 L248.124,271.852 C243.907979,281.77205 237.894039,290.513962 230.082,298.078 C222.269961,305.642038 213.466049,312.027974 203.67,317.236 C193.873951,322.444026 183.396056,326.411986 172.236,329.14 C161.075944,331.868014 150.164053,333.232 139.5,333.232 C120.651906,333.232 103.416078,329.26404 87.792,321.328 C72.1679219,313.39196 58.7140564,303.038064 47.43,290.266 C36.1459436,277.493936 27.3420316,262.986081 21.018,246.742 C14.6939684,230.497919 11.532,213.944084 11.532,197.08 Z M365.3815,334.72 C350.005423,334.72 336.179561,331.992027 323.9035,326.536 C311.627439,321.079973 301.149543,313.764046 292.4695,304.588 C283.789457,295.411954 277.093524,284.686061 272.3815,272.41 C267.669476,260.133939 265.3135,247.300067 265.3135,233.908 C265.3135,220.515933 267.669476,207.682061 272.3815,195.406 C277.093524,183.129939 283.851456,172.404046 292.6555,163.228 C301.459544,154.051954 311.999439,146.736027 324.2755,141.28 C336.551561,135.823973 350.253424,133.096 365.3815,133.096 C380.509576,133.096 394.211439,135.823973 406.4875,141.28 C418.763561,146.736027 429.303456,154.051954 438.1075,163.228 C446.911544,172.404046 453.669476,183.129939 458.3815,195.406 C463.093524,207.682061 465.4495,220.515933 465.4495,233.908 C465.4495,247.300067 463.093524,260.133939 458.3815,272.41 C453.669476,284.686061 446.911544,295.411954 438.1075,304.588 C429.303456,313.764046 418.763561,321.079973 406.4875,326.536 C394.211439,331.992027 380.509576,334.72 365.3815,334.72 Z M307.3495,234.28 C307.3495,243.704047 308.837485,252.38396 311.8135,260.32 C314.789515,268.25604 318.881474,275.137971 324.0895,280.966 C329.297526,286.794029 335.435465,291.381983 342.5035,294.73 C349.571535,298.078017 357.197459,299.752 365.3815,299.752 C373.565541,299.752 381.191465,298.078017 388.2595,294.73 C395.327535,291.381983 401.465474,286.73203 406.6735,280.78 C411.881526,274.82797 415.973485,267.88404 418.9495,259.948 C421.925515,252.01196 423.4135,243.332047 423.4135,233.908 C423.4135,224.731954 421.925515,216.11404 418.9495,208.054 C415.973485,199.99396 411.881526,192.98803 406.6735,187.036 C401.465474,181.08397 395.327535,176.434017 388.2595,173.086 C381.191465,169.737983 373.565541,168.064 365.3815,168.064 C357.44546,168.064 349.943535,169.799983 342.8755,173.272 C335.807465,176.744017 329.669526,181.45597 324.4615,187.408 C319.253474,193.36003 315.099515,200.36596 311.9995,208.426 C308.899485,216.48604 307.3495,225.103954 307.3495,234.28 Z M609.431583,171.784 C593.559504,172.280002 579.485644,175.937966 567.209583,182.758 C554.933522,189.578034 546.191609,199.311937 540.983583,211.96 L540.983583,331 L500.063583,331 L500.063583,136.444 L538.007583,136.444 L538.007583,179.968 C544.703616,166.575933 553.445529,155.85004 564.233583,147.79 C575.021637,139.72996 586.615521,135.328004 599.015583,134.584 L605.153583,134.584 C606.765591,134.584 608.191577,134.707999 609.431583,134.956 L609.431583,171.784 Z M811.817666,331 L770.897666,331 L770.897666,222.004 C770.897666,203.651908 767.983695,190.322042 762.155666,182.014 C756.327637,173.705958 747.709723,169.552 736.301666,169.552 C730.349636,169.552 724.397696,170.667989 718.445666,172.9 C712.493636,175.132011 706.913692,178.29398 701.705666,182.386 C696.49764,186.47802 691.847686,191.313972 687.755666,196.894 C683.663646,202.474028 680.501677,208.611967 678.269666,215.308 L678.269666,331 L637.349666,331 L637.349666,136.444 L674.549666,136.444 L674.549666,175.504 C681.989703,162.359934 692.777595,152.006038 706.913666,144.442 C721.049737,136.877962 736.67358,133.096 753.785666,133.096 C765.441724,133.096 774.989629,135.203979 782.429666,139.42 C789.869703,143.636021 795.759644,149.401963 800.099666,156.718 C804.439688,164.034037 807.477657,172.465952 809.213666,182.014 C810.949675,191.562048 811.817666,201.667947 811.817666,212.332 L811.817666,331 Z M945.755749,334.72 C930.627673,334.72 916.863811,332.054027 904.463749,326.722 C892.063687,321.389973 881.461793,314.136046 872.657749,304.96 C863.853705,295.783954 857.033773,285.120061 852.197749,272.968 C847.361725,260.815939 844.943749,247.920068 844.943749,234.28 C844.943749,220.639932 847.361725,207.682061 852.197749,195.406 C857.033773,183.129939 863.853705,172.342046 872.657749,163.042 C881.461793,153.741954 892.063687,146.426027 904.463749,141.094 C916.863811,135.761973 930.751672,133.096 946.127749,133.096 C961.255825,133.096 974.957688,135.823973 987.233749,141.28 C999.50981,146.736027 1009.98771,153.989955 1018.66775,163.042 C1027.34779,172.094045 1033.98173,182.63394 1038.56975,194.662 C1043.15777,206.69006 1045.45175,219.275934 1045.45175,232.42 C1045.45175,235.396015 1045.32775,238.185987 1045.07975,240.79 C1044.83175,243.394013 1044.58375,245.563991 1044.33575,247.3 L888.467749,247.3 C889.211753,255.980043 891.257732,263.791965 894.605749,270.736 C897.953766,277.680035 902.293722,283.693975 907.625749,288.778 C912.957776,293.862025 919.033715,297.767986 925.853749,300.496 C932.673783,303.224014 939.803712,304.588 947.243749,304.588 C952.699776,304.588 958.093722,303.906007 963.425749,302.542 C968.757776,301.177993 973.655727,299.194013 978.119749,296.59 C982.583771,293.985987 986.551732,290.824019 990.023749,287.104 C993.495766,283.383981 996.223739,279.292022 998.207749,274.828 L1033.17575,284.872 C1026.47972,299.504073 1015.38183,311.469953 999.881749,320.77 C984.381671,330.070046 966.339852,334.72 945.755749,334.72 Z M1004.90375,219.028 C1004.15975,210.843959 1002.11377,203.280035 998.765749,196.336 C995.417732,189.391965 991.139775,183.502024 985.931749,178.666 C980.723723,173.829976 974.647784,170.048014 967.703749,167.32 C960.759714,164.591986 953.443787,163.228 945.755749,163.228 C938.067711,163.228 930.813783,164.591986 923.993749,167.32 C917.173715,170.048014 911.159775,173.829976 905.951749,178.666 C900.743723,183.502024 896.527765,189.391965 893.303749,196.336 C890.079733,203.280035 888.095753,210.843959 887.351749,219.028 L1004.90375,219.028 Z M1077.46183,59.44 L1118.38183,59.44 L1118.38183,274.828 C1118.38183,282.020036 1120.24181,287.66198 1123.96183,291.754 C1127.68185,295.84602 1132.8898,297.892 1139.58583,297.892 C1142.31385,297.892 1145.47581,297.396005 1149.07183,296.404 C1152.66785,295.411995 1156.07782,294.296006 1159.30183,293.056 L1165.25383,325.048 C1159.3018,327.776014 1152.23387,329.945992 1144.04983,331.558 C1135.86579,333.170008 1128.54986,333.976 1122.10183,333.976 C1107.96576,333.976 1096.99187,330.132038 1089.17983,322.444 C1081.36779,314.755962 1077.46183,303.844071 1077.46183,289.708 L1077.46183,59.44 Z M1187.59191,59.44 L1228.51192,59.44 L1228.51192,274.828 C1228.51192,282.020036 1230.3719,287.66198 1234.09191,291.754 C1237.81193,295.84602 1243.01988,297.892 1249.71591,297.892 C1252.44393,297.892 1255.6059,297.396005 1259.20192,296.404 C1262.79793,295.411995 1266.2079,294.296006 1269.43191,293.056 L1275.38391,325.048 C1269.43189,327.776014 1262.36396,329.945992 1254.17991,331.558 C1245.99587,333.170008 1238.67995,333.976 1232.23192,333.976 C1218.09584,333.976 1207.12195,330.132038 1199.30992,322.444 C1191.49788,314.755962 1187.59191,303.844071 1187.59191,289.708 L1187.59191,59.44 Z M1378.83608,331 L1378.83608,66.88 L1474.81208,66.88 C1496.38819,66.88 1515.298,70.3519653 1531.54208,77.296 C1547.78616,84.2400347 1561.36403,93.6639405 1572.27608,105.568 C1583.18814,117.47206 1591.37205,131.42192 1596.82808,147.418 C1602.28411,163.41408 1605.01208,180.463909 1605.01208,198.568 C1605.01208,218.6561 1601.97411,236.821919 1595.89808,253.066 C1589.82205,269.310081 1581.08014,283.197942 1569.67208,294.73 C1558.26402,306.262058 1544.56216,315.189968 1528.56608,321.514 C1512.57,327.838032 1494.65218,331 1474.81208,331 L1378.83608,331 Z M1553.30408,198.568 C1553.30408,185.919937 1551.5681,174.264053 1548.09608,163.6 C1544.62406,152.935947 1539.54011,143.760038 1532.84408,136.072 C1526.14805,128.383962 1517.90213,122.432021 1508.10608,118.216 C1498.31003,113.999979 1487.21214,111.892 1474.81208,111.892 L1430.17208,111.892 L1430.17208,285.988 L1474.81208,285.988 C1487.46014,285.988 1498.68203,283.756022 1508.47808,279.292 C1518.27413,274.827978 1526.45805,268.690039 1533.03008,260.878 C1539.60211,253.065961 1544.62406,243.828053 1548.09608,233.164 C1551.5681,222.499947 1553.30408,210.968062 1553.30408,198.568 Z M1728.53416,334.72 C1713.40609,334.72 1699.64223,332.054027 1687.24216,326.722 C1674.8421,321.389973 1664.24021,314.136046 1655.43616,304.96 C1646.63212,295.783954 1639.81219,285.120061 1634.97616,272.968 C1630.14014,260.815939 1627.72216,247.920068 1627.72216,234.28 C1627.72216,220.639932 1630.14014,207.682061 1634.97616,195.406 C1639.81219,183.129939 1646.63212,172.342046 1655.43616,163.042 C1664.24021,153.741954 1674.8421,146.426027 1687.24216,141.094 C1699.64223,135.761973 1713.53009,133.096 1728.90616,133.096 C1744.03424,133.096 1757.7361,135.823973 1770.01216,141.28 C1782.28823,146.736027 1792.76612,153.989955 1801.44616,163.042 C1810.12621,172.094045 1816.76014,182.63394 1821.34816,194.662 C1825.93619,206.69006 1828.23016,219.275934 1828.23016,232.42 C1828.23016,235.396015 1828.10617,238.185987 1827.85816,240.79 C1827.61016,243.394013 1827.36217,245.563991 1827.11416,247.3 L1671.24616,247.3 C1671.99017,255.980043 1674.03615,263.791965 1677.38416,270.736 C1680.73218,277.680035 1685.07214,283.693975 1690.40416,288.778 C1695.73619,293.862025 1701.81213,297.767986 1708.63216,300.496 C1715.4522,303.224014 1722.58213,304.588 1730.02216,304.588 C1735.47819,304.588 1740.87214,303.906007 1746.20416,302.542 C1751.53619,301.177993 1756.43414,299.194013 1760.89816,296.59 C1765.36219,293.985987 1769.33015,290.824019 1772.80216,287.104 C1776.27418,283.383981 1779.00215,279.292022 1780.98616,274.828 L1815.95416,284.872 C1809.25813,299.504073 1798.16024,311.469953 1782.66016,320.77 C1767.16009,330.070046 1749.11827,334.72 1728.53416,334.72 Z M1787.68216,219.028 C1786.93816,210.843959 1784.89218,203.280035 1781.54416,196.336 C1778.19615,189.391965 1773.91819,183.502024 1768.71016,178.666 C1763.50214,173.829976 1757.4262,170.048014 1750.48216,167.32 C1743.53813,164.591986 1736.2222,163.228 1728.53416,163.228 C1720.84613,163.228 1713.5922,164.591986 1706.77216,167.32 C1699.95213,170.048014 1693.93819,173.829976 1688.73016,178.666 C1683.52214,183.502024 1679.30618,189.391965 1676.08216,196.336 C1672.85815,203.280035 1670.87417,210.843959 1670.13016,219.028 L1787.68216,219.028 Z M1930.54825,334.72 C1914.92417,334.72 1899.36232,332.178025 1883.86225,327.094 C1868.36217,322.009975 1855.0323,314.756047 1843.87225,305.332 L1860.24025,279.292 C1871.89631,287.724042 1883.42819,294.109978 1894.83625,298.45 C1906.2443,302.790022 1917.90019,304.96 1929.80425,304.96 C1941.95631,304.96 1951.56621,302.604024 1958.63425,297.892 C1965.70228,293.179976 1969.23625,286.484043 1969.23625,277.804 C1969.23625,269.619959 1965.26829,263.668019 1957.33225,259.948 C1949.39621,256.227981 1936.99633,252.136022 1920.13225,247.672 C1907.98019,244.447984 1897.56429,241.348015 1888.88425,238.372 C1880.2042,235.395985 1873.13627,231.92402 1867.68025,227.956 C1862.22422,223.98798 1858.25626,219.400026 1855.77625,214.192 C1853.29623,208.983974 1852.05625,202.660037 1852.05625,195.22 C1852.05625,185.29995 1853.97823,176.496038 1857.82225,168.808 C1861.66627,161.119962 1866.99821,154.610027 1873.81825,149.278 C1880.63828,143.945973 1888.6362,139.916014 1897.81225,137.188 C1906.98829,134.459986 1916.90819,133.096 1927.57225,133.096 C1942.20432,133.096 1955.84418,135.327978 1968.49225,139.792 C1981.14031,144.256022 1992.4242,150.703958 2002.34425,159.136 L1984.86025,183.688 C1966.75616,169.303928 1947.53635,162.112 1927.20025,162.112 C1916.78419,162.112 1908.04228,164.281978 1900.97425,168.622 C1893.90621,172.962022 1890.37225,179.843953 1890.37225,189.268 C1890.37225,193.23602 1891.11624,196.583986 1892.60425,199.312 C1894.09225,202.040014 1896.51023,204.39599 1899.85825,206.38 C1903.20626,208.36401 1907.54622,210.161992 1912.87825,211.774 C1918.21027,213.386008 1924.84421,215.18399 1932.78025,217.168 C1945.92431,220.392016 1957.2702,223.615984 1966.81825,226.84 C1976.36629,230.064016 1984.24022,233.845978 1990.44025,238.186 C1996.64028,242.526022 2001.22823,247.609971 2004.20425,253.438 C2007.18026,259.266029 2008.66825,266.271959 2008.66825,274.456 C2008.66825,293.056093 2001.66232,307.749946 1987.65025,318.538 C1973.63818,329.326054 1954.60437,334.72 1930.54825,334.72 Z M2042.53833,331 L2042.53833,136.444 L2083.45833,136.444 L2083.45833,331 L2042.53833,331 Z M2042.53833,104.452 L2042.53833,59.44 L2083.45833,59.44 L2083.45833,104.452 L2042.53833,104.452 Z M2207.72441,332.86 C2194.58035,332.86 2182.55247,330.194027 2171.64041,324.862 C2160.72836,319.529973 2151.36645,312.276046 2143.55441,303.1 C2135.74237,293.923954 2129.66643,283.38406 2125.32641,271.48 C2120.98639,259.57594 2118.81641,247.052066 2118.81641,233.908 C2118.81641,220.019931 2121.04839,206.938061 2125.51241,194.662 C2129.97644,182.385939 2136.17637,171.722045 2144.11241,162.67 C2152.04845,153.617955 2161.53436,146.426027 2172.57041,141.094 C2183.60647,135.761973 2195.82035,133.096 2209.21241,133.096 C2224.83649,133.096 2238.53835,136.815963 2250.31841,144.256 C2262.09847,151.696037 2271.83237,161.36794 2279.52041,173.272 L2279.52041,136.444 L2315.60441,136.444 L2315.60441,325.42 C2315.60441,339.556071 2313.00044,352.079945 2307.79241,362.992 C2302.58439,373.904055 2295.33046,383.141962 2286.03041,390.706 C2276.73037,398.270038 2265.75648,404.03598 2253.10841,408.004 C2240.46035,411.97202 2226.82049,413.956 2212.18841,413.956 C2190.61231,413.956 2172.69448,410.298037 2158.43441,402.982 C2144.17434,395.665963 2132.20846,385.436066 2122.53641,372.292 L2145.60041,350.716 C2153.04045,361.132052 2162.65035,369.067973 2174.43041,374.524 C2186.21047,379.980027 2198.79635,382.708 2212.18841,382.708 C2220.62046,382.708 2228.61838,381.592011 2236.18241,379.36 C2243.74645,377.127989 2250.38038,373.656024 2256.08441,368.944 C2261.78844,364.231976 2266.3144,358.280036 2269.66241,351.088 C2273.01043,343.895964 2274.68441,335.34005 2274.68441,325.42 L2274.68441,295.66 C2267.74038,307.56406 2258.19247,316.739968 2246.04041,323.188 C2233.88835,329.636032 2221.11648,332.86 2207.72441,332.86 Z M2221.11641,299.752 C2227.31644,299.752 2233.26838,298.698011 2238.97241,296.59 C2244.67644,294.481989 2249.94639,291.630018 2254.78241,288.034 C2259.61844,284.437982 2263.7724,280.346023 2267.24441,275.758 C2270.71643,271.169977 2273.19641,266.272026 2274.68441,261.064 L2274.68441,210.1 C2272.2044,203.899969 2268.98043,198.258025 2265.01241,193.174 C2261.04439,188.089975 2256.51844,183.688019 2251.43441,179.968 C2246.35039,176.247981 2240.95644,173.334011 2235.25241,171.226 C2229.54838,169.117989 2223.84444,168.064 2218.14041,168.064 C2209.21237,168.064 2201.21445,169.985981 2194.14641,173.83 C2187.07838,177.674019 2181.06444,182.757968 2176.10441,189.082 C2171.14439,195.406032 2167.30043,202.53596 2164.57241,210.472 C2161.8444,218.40804 2160.48041,226.591958 2160.48041,235.024 C2160.48041,243.952045 2162.0304,252.321961 2165.13041,260.134 C2168.23043,267.946039 2172.50839,274.765971 2177.96441,280.594 C2183.42044,286.422029 2189.80638,291.071983 2197.12241,294.544 C2204.43845,298.016017 2212.43637,299.752 2221.11641,299.752 Z M2537.3345,331 L2496.4145,331 L2496.4145,222.004 C2496.4145,203.651908 2493.50053,190.322042 2487.6725,182.014 C2481.84447,173.705958 2473.22655,169.552 2461.8185,169.552 C2455.86647,169.552 2449.91453,170.667989 2443.9625,172.9 C2438.01047,175.132011 2432.43052,178.29398 2427.2225,182.386 C2422.01447,186.47802 2417.36452,191.313972 2413.2725,196.894 C2409.18048,202.474028 2406.01851,208.611967 2403.7865,215.308 L2403.7865,331 L2362.8665,331 L2362.8665,136.444 L2400.0665,136.444 L2400.0665,175.504 C2407.50653,162.359934 2418.29443,152.006038 2432.4305,144.442 C2446.56657,136.877962 2462.19041,133.096 2479.3025,133.096 C2490.95855,133.096 2500.50646,135.203979 2507.9465,139.42 C2515.38653,143.636021 2521.27647,149.401963 2525.6165,156.718 C2529.95652,164.034037 2532.99449,172.465952 2534.7305,182.014 C2536.4665,191.562048 2537.3345,201.667947 2537.3345,212.332 L2537.3345,331 Z M203.856,731 L179.676,705.704 C168.763945,715.128047 156.798065,722.319975 143.778,727.28 C130.757935,732.240025 117.180071,734.72 103.044,734.72 C90.1479355,734.72 78.3680533,732.73602 67.704,728.768 C57.0399467,724.79998 47.8640384,719.406034 40.176,712.586 C32.4879616,705.765966 26.5360211,697.706046 22.32,688.406 C18.1039789,679.105953 15.996,669.248052 15.996,658.832 C15.996,650.399958 17.297987,642.588036 19.902,635.396 C22.506013,628.203964 26.0399777,621.508031 30.504,615.308 C34.9680223,609.107969 40.1759702,603.404026 46.128,598.196 C52.0800298,592.987974 58.2799678,588.152022 64.728,583.688 C59.0239715,577.487969 54.2500192,571.784026 50.406,566.576 C46.5619808,561.367974 43.4620118,556.470023 41.106,551.882 C38.7499882,547.293977 37.0140056,542.830022 35.898,538.49 C34.7819944,534.149978 34.224,529.624024 34.224,524.912 C34.224,515.983955 36.021982,507.738038 39.618,500.174 C43.214018,492.609962 48.111969,486.100027 54.312,480.644 C60.512031,475.187973 67.8899572,470.972015 76.446,467.996 C85.0020428,465.019985 94.2399504,463.532 104.16,463.532 C113.088045,463.532 121.643959,464.771988 129.828,467.252 C138.012041,469.732012 145.203969,473.327976 151.404,478.04 C157.604031,482.752024 162.501982,488.641965 166.098,495.71 C169.694018,502.778035 171.492,510.775955 171.492,519.704 C171.492,527.144037 170.190013,533.963969 167.586,540.164 C164.981987,546.364031 161.448022,552.253972 156.984,557.834 C152.519978,563.414028 147.25003,568.745975 141.174,573.83 C135.09797,578.914025 128.588035,583.811976 121.644,588.524 L181.164,651.02 C185.380021,642.339957 188.665988,632.97805 191.022,622.934 C193.378012,612.88995 194.556,602.164057 194.556,590.756 L228.036,590.756 C227.787999,607.620084 225.68002,623.181929 221.712,637.442 C217.74398,651.702071 212.164036,664.535943 204.972,675.944 L257.796,731 L203.856,731 Z M107.508,702.356 C116.684046,702.356 125.549957,700.620017 134.106,697.148 C142.662043,693.675983 150.535964,688.716032 157.728,682.268 L89.28,609.728 C79.1119492,616.920036 70.928031,624.48396 64.728,632.42 C58.527969,640.35604 55.428,649.28395 55.428,659.204 C55.428,665.652032 56.7919864,671.541973 59.52,676.874 C62.2480136,682.206027 66.0299758,686.731981 70.866,690.452 C75.7020242,694.172019 81.219969,697.085989 87.42,699.194 C93.620031,701.302011 100.315964,702.356 107.508,702.356 Z M71.796,523.796 C71.796,526.276012 72.1679963,528.693988 72.912,531.05 C73.6560037,533.406012 74.9579907,536.071985 76.818,539.048 C78.6780093,542.024015 81.2819833,545.371981 84.63,549.092 C87.9780167,552.812019 92.1319752,557.399973 97.092,562.856 C108.500057,555.663964 117.489967,548.782033 124.062,542.21 C130.634033,535.637967 133.92,528.38404 133.92,520.448 C133.92,512.51196 131.130028,506.126024 125.55,501.29 C119.969972,496.453976 112.840043,494.036 104.16,494.036 C94.7359529,494.036 86.9860304,496.949971 80.91,502.778 C74.8339696,508.606029 71.796,515.611959 71.796,523.796 Z M572.172166,511.892 L487.728166,511.892 L487.728166,731 L436.764166,731 L436.764166,511.892 L352.320166,511.892 L352.320166,466.88 L572.172166,466.88 L572.172166,511.892 Z M688.254249,734.72 C673.126173,734.72 659.362311,732.054027 646.962249,726.722 C634.562187,721.389973 623.960293,714.136046 615.156249,704.96 C606.352205,695.783954 599.532273,685.120061 594.696249,672.968 C589.860225,660.815939 587.442249,647.920068 587.442249,634.28 C587.442249,620.639932 589.860225,607.682061 594.696249,595.406 C599.532273,583.129939 606.352205,572.342046 615.156249,563.042 C623.960293,553.741954 634.562187,546.426027 646.962249,541.094 C659.362311,535.761973 673.250172,533.096 688.626249,533.096 C703.754325,533.096 717.456188,535.823973 729.732249,541.28 C742.00831,546.736027 752.486206,553.989955 761.166249,563.042 C769.846292,572.094045 776.480226,582.63394 781.068249,594.662 C785.656272,606.69006 787.950249,619.275934 787.950249,632.42 C787.950249,635.396015 787.82625,638.185987 787.578249,640.79 C787.330248,643.394013 787.08225,645.563991 786.834249,647.3 L630.966249,647.3 C631.710253,655.980043 633.756232,663.791965 637.104249,670.736 C640.452266,677.680035 644.792222,683.693975 650.124249,688.778 C655.456276,693.862025 661.532215,697.767986 668.352249,700.496 C675.172283,703.224014 682.302212,704.588 689.742249,704.588 C695.198276,704.588 700.592222,703.906007 705.924249,702.542 C711.256276,701.177993 716.154227,699.194013 720.618249,696.59 C725.082271,693.985987 729.050232,690.824019 732.522249,687.104 C735.994266,683.383981 738.722239,679.292022 740.706249,674.828 L775.674249,684.872 C768.978216,699.504073 757.880326,711.469953 742.380249,720.77 C726.880171,730.070046 708.838352,734.72 688.254249,734.72 Z M747.402249,619.028 C746.658245,610.843959 744.612266,603.280035 741.264249,596.336 C737.916232,589.391965 733.638275,583.502024 728.430249,578.666 C723.222223,573.829976 717.146284,570.048014 710.202249,567.32 C703.258214,564.591986 695.942287,563.228 688.254249,563.228 C680.566211,563.228 673.312283,564.591986 666.492249,567.32 C659.672215,570.048014 653.658275,573.829976 648.450249,578.666 C643.242223,583.502024 639.026265,589.391965 635.802249,596.336 C632.578233,603.280035 630.594253,610.843959 629.850249,619.028 L747.402249,619.028 Z M806.940332,633.536 C806.940332,619.895932 809.296308,607.000061 814.008332,594.848 C818.720356,582.695939 825.478288,572.032046 834.282332,562.856 C843.086376,553.679954 853.68827,546.426027 866.088332,541.094 C878.488394,535.761973 892.376255,533.096 907.752332,533.096 C927.840432,533.096 945.138259,537.497956 959.646332,546.302 C974.154405,555.106044 985.004296,566.823927 992.196332,581.456 L952.392332,594.104 C947.680308,585.919959 941.356372,579.534023 933.420332,574.946 C925.484292,570.357977 916.68038,568.064 907.008332,568.064 C898.824291,568.064 891.198367,569.675984 884.130332,572.9 C877.062297,576.124016 870.924358,580.649971 865.716332,586.478 C860.508306,592.306029 856.416347,599.18796 853.440332,607.124 C850.464317,615.06004 848.976332,623.863952 848.976332,633.536 C848.976332,642.960047 850.526316,651.70196 853.626332,659.762 C856.726347,667.82204 860.942305,674.82797 866.274332,680.78 C871.606359,686.73203 877.806297,691.381983 884.874332,694.73 C891.942367,698.078017 899.444292,699.752 907.380332,699.752 C912.340357,699.752 917.300307,699.070007 922.260332,697.706 C927.220357,696.341993 931.746312,694.420012 935.838332,691.94 C939.930352,689.459988 943.526316,686.608016 946.626332,683.384 C949.726347,680.159984 952.020325,676.688019 953.508332,672.968 L993.684332,684.872 C987.2363,699.504073 976.448408,711.469953 961.320332,720.77 C946.192256,730.070046 928.336435,734.72 907.752332,734.72 C892.624256,734.72 878.860394,731.992027 866.460332,726.536 C854.06027,721.079973 843.458376,713.702047 834.654332,704.402 C825.850288,695.101954 819.030356,684.376061 814.194332,672.224 C809.358308,660.071939 806.940332,647.176068 806.940332,633.536 Z M1200.16242,731 L1159.24241,731 L1159.24241,622.004 C1159.24241,604.147911 1156.08045,590.942043 1149.75641,582.386 C1143.43238,573.829957 1134.31847,569.552 1122.41441,569.552 C1116.71039,569.552 1111.00644,570.667989 1105.30241,572.9 C1099.59839,575.132011 1094.20444,578.29398 1089.12041,582.386 C1084.03639,586.47802 1079.51043,591.313972 1075.54241,596.894 C1071.5744,602.474028 1068.59842,608.611967 1066.61441,615.308 L1066.61441,731 L1025.69441,731 L1025.69441,459.44 L1066.61441,459.44 L1066.61441,575.504 C1074.05445,562.111933 1084.16035,551.696037 1096.93241,544.256 C1109.70448,536.815963 1123.65434,533.096 1138.78241,533.096 C1150.93448,533.096 1160.91638,535.265978 1168.72841,539.606 C1176.54045,543.946022 1182.80239,549.711964 1187.51441,556.904 C1192.22644,564.096036 1195.51241,572.465952 1197.37241,582.014 C1199.23242,591.562048 1200.16242,601.667947 1200.16242,612.332 L1200.16242,731 Z M1338.95458,731 L1338.95458,466.88 L1390.29058,466.88 L1390.29058,731 L1338.95458,731 Z M1614.99666,731 L1574.07666,731 L1574.07666,622.004 C1574.07666,603.651908 1571.16269,590.322042 1565.33466,582.014 C1559.50663,573.705958 1550.88872,569.552 1539.48066,569.552 C1533.52863,569.552 1527.57669,570.667989 1521.62466,572.9 C1515.67263,575.132011 1510.09269,578.29398 1504.88466,582.386 C1499.67664,586.47802 1495.02668,591.313972 1490.93466,596.894 C1486.84264,602.474028 1483.68068,608.611967 1481.44866,615.308 L1481.44866,731 L1440.52866,731 L1440.52866,536.444 L1477.72866,536.444 L1477.72866,575.504 C1485.1687,562.359934 1495.95659,552.006038 1510.09266,544.442 C1524.22873,536.877962 1539.85258,533.096 1556.96466,533.096 C1568.62072,533.096 1578.16863,535.203979 1585.60866,539.42 C1593.0487,543.636021 1598.93864,549.401963 1603.27866,556.718 C1607.61869,564.034037 1610.65666,572.465952 1612.39266,582.014 C1614.12867,591.562048 1614.99666,601.667947 1614.99666,612.332 L1614.99666,731 Z M1660.77075,731 L1660.77075,536.444 L1701.69075,536.444 L1701.69075,731 L1660.77075,731 Z M1660.77075,504.452 L1660.77075,459.44 L1701.69075,459.44 L1701.69075,504.452 L1660.77075,504.452 Z M1857.20483,720.956 C1851.9968,723.436012 1844.80488,726.225984 1835.62883,729.326 C1826.45278,732.426015 1816.65688,733.976 1806.24083,733.976 C1799.7928,733.976 1793.71686,733.108009 1788.01283,731.372 C1782.3088,729.635991 1777.28685,727.032017 1772.94683,723.56 C1768.60681,720.087983 1765.19684,715.562028 1762.71683,709.982 C1760.23682,704.401972 1758.99683,697.64404 1758.99683,689.708 L1758.99683,568.064 L1733.32883,568.064 L1733.32883,536.444 L1758.99683,536.444 L1758.99683,472.46 L1799.91683,472.46 L1799.91683,536.444 L1842.32483,536.444 L1842.32483,568.064 L1799.91683,568.064 L1799.91683,676.688 C1800.41283,683.632035 1802.58281,688.653984 1806.42683,691.754 C1810.27085,694.854016 1815.0448,696.404 1820.74883,696.404 C1826.45286,696.404 1831.9088,695.41201 1837.11683,693.428 C1842.32486,691.44399 1846.16882,689.832006 1848.64883,688.592 L1857.20483,720.956 Z M1883.63491,731 L1883.63491,536.444 L1924.55491,536.444 L1924.55491,731 L1883.63491,731 Z M1883.63491,504.452 L1883.63491,459.44 L1924.55491,459.44 L1924.55491,504.452 L1883.63491,504.452 Z M2023.525,734.72 C2014.10095,734.72 2005.35904,733.170015 1997.299,730.07 C1989.23896,726.969985 1982.29503,722.692027 1976.467,717.236 C1970.63897,711.779973 1966.05101,705.332037 1962.703,697.892 C1959.35498,690.451963 1957.681,682.392043 1957.681,673.712 C1957.681,664.535954 1959.66498,656.228037 1963.633,648.788 C1967.60102,641.347963 1973.24296,634.900027 1980.559,629.444 C1987.87503,623.987973 1996.55495,619.772015 2006.599,616.796 C2016.64305,613.819985 2027.74094,612.332 2039.893,612.332 C2049.06904,612.332 2058.12095,613.137992 2067.049,614.75 C2075.97704,616.362008 2084.03696,618.531986 2091.229,621.26 L2091.229,607.868 C2091.229,593.483928 2087.13704,582.26204 2078.953,574.202 C2070.76896,566.14196 2058.98907,562.112 2043.613,562.112 C2033.19694,562.112 2022.96705,564.033981 2012.923,567.878 C2002.87895,571.722019 1992.52505,577.239964 1981.861,584.432 L1969.213,558.392 C1994.26112,541.527916 2020.30086,533.096 2047.333,533.096 C2074.11713,533.096 2094.94892,539.915932 2109.829,553.556 C2124.70907,567.196068 2132.149,586.787872 2132.149,612.332 L2132.149,682.64 C2132.149,691.320043 2135.74496,695.783999 2142.937,696.032 L2142.937,731 C2138.96898,731.744004 2135.55901,732.239999 2132.707,732.488 C2129.85498,732.736001 2127.06501,732.86 2124.337,732.86 C2116.40096,732.86 2110.26302,730.87602 2105.923,726.908 C2101.58297,722.93998 2098.917,717.856031 2097.925,711.656 L2096.809,699.38 C2088.12895,710.788057 2077.40306,719.52997 2064.631,725.606 C2051.85893,731.68203 2038.15707,734.72 2023.525,734.72 Z M2034.685,704.588 C2044.60505,704.588 2053.96695,702.790018 2062.771,699.194 C2071.57504,695.597982 2078.45697,690.576032 2083.417,684.128 C2088.62502,679.663978 2091.229,674.952025 2091.229,669.992 L2091.229,644.324 C2084.28496,641.595986 2076.90704,639.488007 2069.095,638 C2061.28296,636.511993 2053.65703,635.768 2046.217,635.768 C2031.58492,635.768 2019.61904,638.929968 2010.319,645.254 C2001.01895,651.578032 1996.369,659.947948 1996.369,670.364 C1996.369,680.036048 1999.96496,688.157967 2007.157,694.73 C2014.34903,701.302033 2023.52494,704.588 2034.685,704.588 Z M2286.54708,720.956 C2281.33905,723.436012 2274.14712,726.225984 2264.97108,729.326 C2255.79503,732.426015 2245.99913,733.976 2235.58308,733.976 C2229.13505,733.976 2223.05911,733.108009 2217.35508,731.372 C2211.65105,729.635991 2206.6291,727.032017 2202.28908,723.56 C2197.94906,720.087983 2194.53909,715.562028 2192.05908,709.982 C2189.57907,704.401972 2188.33908,697.64404 2188.33908,689.708 L2188.33908,568.064 L2162.67108,568.064 L2162.67108,536.444 L2188.33908,536.444 L2188.33908,472.46 L2229.25908,472.46 L2229.25908,536.444 L2271.66708,536.444 L2271.66708,568.064 L2229.25908,568.064 L2229.25908,676.688 C2229.75508,683.632035 2231.92506,688.653984 2235.76908,691.754 C2239.6131,694.854016 2244.38705,696.404 2250.09108,696.404 C2255.79511,696.404 2261.25105,695.41201 2266.45908,693.428 C2271.66711,691.44399 2275.51107,689.832006 2277.99108,688.592 L2286.54708,720.956 Z M2312.97716,731 L2312.97716,536.444 L2353.89716,536.444 L2353.89716,731 L2312.97716,731 Z M2312.97716,504.452 L2312.97716,459.44 L2353.89716,459.44 L2353.89716,504.452 L2312.97716,504.452 Z M2455.84325,731 L2381.44325,536.444 L2423.47925,536.444 L2479.27925,696.404 L2535.45125,536.444 L2574.13925,536.444 L2499.73925,731 L2455.84325,731 Z M2682.78133,734.72 C2667.65325,734.72 2653.88939,732.054027 2641.48933,726.722 C2629.08927,721.389973 2618.48737,714.136046 2609.68333,704.96 C2600.87928,695.783954 2594.05935,685.120061 2589.22333,672.968 C2584.3873,660.815939 2581.96933,647.920068 2581.96933,634.28 C2581.96933,620.639932 2584.3873,607.682061 2589.22333,595.406 C2594.05935,583.129939 2600.87928,572.342046 2609.68333,563.042 C2618.48737,553.741954 2629.08927,546.426027 2641.48933,541.094 C2653.88939,535.761973 2667.77725,533.096 2683.15333,533.096 C2698.2814,533.096 2711.98327,535.823973 2724.25933,541.28 C2736.53539,546.736027 2747.01328,553.989955 2755.69333,563.042 C2764.37337,572.094045 2771.00731,582.63394 2775.59533,594.662 C2780.18335,606.69006 2782.47733,619.275934 2782.47733,632.42 C2782.47733,635.396015 2782.35333,638.185987 2782.10533,640.79 C2781.85733,643.394013 2781.60933,645.563991 2781.36133,647.3 L2625.49333,647.3 C2626.23733,655.980043 2628.28331,663.791965 2631.63133,670.736 C2634.97934,677.680035 2639.3193,683.693975 2644.65133,688.778 C2649.98335,693.862025 2656.05929,697.767986 2662.87933,700.496 C2669.69936,703.224014 2676.82929,704.588 2684.26933,704.588 C2689.72536,704.588 2695.1193,703.906007 2700.45133,702.542 C2705.78335,701.177993 2710.68131,699.194013 2715.14533,696.59 C2719.60935,693.985987 2723.57731,690.824019 2727.04933,687.104 C2730.52135,683.383981 2733.24932,679.292022 2735.23333,674.828 L2770.20133,684.872 C2763.50529,699.504073 2752.40741,711.469953 2736.90733,720.77 C2721.40725,730.070046 2703.36543,734.72 2682.78133,734.72 Z M2741.92933,619.028 C2741.18532,610.843959 2739.13934,603.280035 2735.79133,596.336 C2732.44331,589.391965 2728.16535,583.502024 2722.95733,578.666 C2717.7493,573.829976 2711.67336,570.048014 2704.72933,567.32 C2697.78529,564.591986 2690.46937,563.228 2682.78133,563.228 C2675.09329,563.228 2667.83936,564.591986 2661.01933,567.32 C2654.19929,570.048014 2648.18535,573.829976 2642.97733,578.666 C2637.7693,583.502024 2633.55334,589.391965 2630.32933,596.336 C2627.10531,603.280035 2625.12133,610.843959 2624.37733,619.028 L2741.92933,619.028 Z" id="Outlines"></path>
        </g>
        <g id="Icon-Rounded">
            <mask id="mask-2" fill="white">
                <use xlink:href="#path-1"></use>
            </mask>
            <use id="Mask" fill="#6F6F6F" fill-rule="evenodd" xlink:href="#path-1"></use>
            <g id="Icon" mask="url(#mask-2)">
                <rect id="Base" fill="#6F6F6F" fill-rule="evenodd" x="0" y="0" width="800" height="800"></rect>
                <g id="Glyph-Shadow">
                    <path d="M363.652541,187.928694 L625.096329,187.928694 L932.166264,494.998629 L639.236199,787.928694 L362.61164,787.928694 C312.074334,789.011739 261.015747,774.697304 209.435879,744.98539 C132.066077,700.417519 64.2088818,594.694029 63.6709519,488.640978 C63.1658259,389.055208 120.008658,294.657018 187.729435,245.71392 C211.694405,228.393979 238.702787,212.812111 270.272042,203.024963 C282.715473,199.167232 300.16131,193.311008 324.049841,190.603922 C339.975529,188.799198 353.176429,187.907455 363.652541,187.928694 Z" id="Shadow" fill="#373737" fill-rule="evenodd" transform="translate(497.916937, 487.957076) rotate(45.000000) translate(-497.916937, -487.957076) "></path>
                    <g id="Glyph-Light">
                        <path d="M505.195959,401.622366 L513.681241,393.137085 L510.852814,390.308658 L502.367532,398.793939 L474.083261,370.509668 L482.568542,362.024387 L479.740115,359.195959 L471.254834,367.681241 L442.970563,339.39697 L451.455844,330.911688 L448.627417,328.083261 L440.142136,336.568542 L411.857864,308.284271 L440.142136,280 L561.764502,401.622366 L533.480231,429.906638 L505.195959,401.622366 Z M414.977705,282.426407 L386.693434,254.142136 L400.83557,240 L429.119841,268.284271 L414.977705,282.426407 Z M409.320851,288.083261 L299.012193,398.391919 L270.727922,370.107648 L381.03658,259.79899 L409.320851,288.083261 Z M400.857864,366 C411.903559,366 420.857864,374.954305 420.857864,386 L420.857864,526 C420.857864,537.045695 411.903559,546 400.857864,546 C389.812169,546 380.857864,537.045695 380.857864,526 L380.857864,386 C380.857864,374.954305 389.812169,366 400.857864,366 Z M258,411.119841 L265.071068,375.764502 L293.355339,404.048773 L258,411.119841 Z" id="Arrow" fill="#FFFFFF" fill-rule="evenodd"></path>
                        <path d="M392.829255,118.184594 C245.662892,123.535142 128,244.526751 128,393 C128,544.878306 251.121694,668 403,668 C551.473249,668 672.464858,550.337108 677.815406,403.170745 L392.829255,118.184594 Z" id="Arc" stroke="#FF324A" stroke-width="50" transform="translate(403.000000, 393.000000) rotate(45.000000) translate(-403.000000, -393.000000) "></path>
                    </g>
                </g>
            </g>
        </g>
    </g>
</svg>